<?xml version="1.0" encoding="UTF-8"?>
<!DOCTYPE svg PUBLIC "-//W3C//DTD SVG 1.1//EN" "http://www.w3.org/Graphics/SVG/1.1/DTD/svg11.dtd">
<!-- Creator: CorelDRAW -->
<svg xmlns="http://www.w3.org/2000/svg" xml:space="preserve" width="132mm" height="132mm" version="1.1" style="shape-rendering:geometricPrecision; text-rendering:geometricPrecision; image-rendering:optimizeQuality; fill-rule:evenodd; clip-rule:evenodd"
viewBox="0 0 13200 13200"
 xmlns:xlink="http://www.w3.org/1999/xlink"
 xmlns:xodm="http://www.corel.com/coreldraw/odm/2003">
 <defs>
  <style type="text/css">
   <![CDATA[
    .fil0 {fill:white;fill-rule:nonzero}
   ]]>
  </style>
 </defs>
 <g id="0020_1">
  <metadata id="CorelCorpID_0Corel-Layer"/>
  <path id="logo" class="fil0" d="M6124.36 8581.56c-291.65,282.16 -578.55,561.95 -865.45,841.74 -99.59,97.21 -211.03,151.75 -355.67,144.64 -97.21,-4.74 -151.75,-47.42 -182.57,-139.89 -218.14,-678.14 -441.03,-1356.27 -659.17,-2036.78 -21.33,-66.39 -52.16,-97.21 -118.55,-118.56 -514.53,-156.49 -1031.43,-317.72 -1543.59,-481.33 -78.25,-26.09 -158.86,-56.91 -227.63,-104.33 -106.7,-71.14 -120.92,-187.32 -26.08,-272.68 87.73,-78.24 192.06,-144.64 301.13,-187.31 630.72,-248.97 1263.8,-490.82 1896.88,-735.04 1605.24,-618.86 3210.48,-1240.09 4815.71,-1858.95 305.87,-118.56 540.61,47.42 507.41,379.38 -21.34,211.03 -75.87,419.68 -118.55,628.34 -348.56,1645.54 -697.11,3293.46 -1048.03,4939 -82.99,391.23 -358.04,493.19 -678.14,256.08 -538.24,-395.97 -1076.48,-794.32 -1614.72,-1192.67 -26.07,-21.33 -52.16,-40.3 -82.98,-61.64zm-1209.27 500.3c7.11,-2.37 11.86,-2.37 18.97,-4.74 2.37,-16.59 7.11,-30.82 9.49,-45.05 35.56,-372.26 71.13,-746.89 101.96,-1119.16 7.11,-82.99 35.56,-142.26 97.21,-199.17 495.56,-443.4 991.12,-891.54 1484.31,-1337.3 547.72,-493.19 1095.45,-986.38 1640.8,-1481.94 33.2,-30.83 47.42,-82.99 71.14,-125.67 -52.16,-4.74 -106.7,-26.08 -154.12,-14.23 -64.02,16.6 -123.3,54.54 -180.21,90.1 -1206.89,761.13 -2416.15,1522.25 -3623.04,2283.37 -68.77,42.68 -80.62,78.25 -54.54,154.12 90.1,256.08 170.72,514.53 253.71,772.98 111.44,341.45 222.88,685.25 334.32,1026.69z"/>
 </g>
</svg>
