<?xml version="1.0" encoding="UTF-8"?>
<!DOCTYPE svg PUBLIC "-//W3C//DTD SVG 1.1//EN" "http://www.w3.org/Graphics/SVG/1.1/DTD/svg11.dtd">
<!-- Creator: CorelDRAW -->
<svg xmlns="http://www.w3.org/2000/svg" xml:space="preserve" width="300mm" height="300mm" version="1.1" style="shape-rendering:geometricPrecision; text-rendering:geometricPrecision; image-rendering:optimizeQuality; fill-rule:evenodd; clip-rule:evenodd"
viewBox="0 0 30000 30000"
 xmlns:xlink="http://www.w3.org/1999/xlink"
 xmlns:xodm="http://www.corel.com/coreldraw/odm/2003">
 <defs>
  <style type="text/css">
   <![CDATA[
    .str0 {stroke:#fff;stroke-width:100}
    .fil0 {fill:#fff}
    .fil1 {fill:#f2f2f2}
   ]]>
  </style>
 </defs>
 <g >
  <metadata id="CorelCorpID_0Corel-Layer"/>
  <rect class="fil0 str0" x="-2.93" y="2.93" width="38371.67" height="38371.67"/>
  <path class="fil1" d="M5594.03 8234.23c48.87,-117.56 138.33,-97.48 205.98,-21.8 -19.05,114.36 -21.58,95 -73.56,220.05 -27.28,65.61 -256.6,100.48 -132.42,-198.25zm-529.65 -793.04c-10.97,65.86 -18.67,64.84 29.33,101.69 -50.18,120.72 -466.01,1094.89 -480.67,1172.11 -18.14,95.59 33.09,235.14 129.64,275.28l900.61 374.37c123.12,51.17 261.91,-10.68 317.84,-118.45l368 -885.42c18.98,-45.68 74.27,-195.98 95.96,-227.14 58.52,-84.07 82.72,25.1 108.46,-135.45 -100.62,-72.25 -135.41,-74.19 -268.42,-129.48 -77.71,186.95 -348.54,923.88 -462,1025.31 -56.11,-9.34 -166.48,-30.19 -127.27,-124.51l406.1 -976.94 -76.32 -31.72c-91.52,220.15 -99.4,334.63 -240.11,276.14 -104.05,-43.26 11,-241.79 56.93,-352.29l-656.38 -272.84c-43.11,-17.93 -73.44,10.55 -101.7,29.34zm26342.24 10789.02c-15.03,-126.42 72.78,-152.78 168.85,-119.98 39.46,109.01 27.76,93.38 43.76,227.85 8.39,70.56 -174.39,213.38 -212.61,-107.87zm-850.41 -431.55c22.73,62.78 15.51,65.66 75.42,74.25 15.44,129.82 130.58,1182.75 155.66,1257.24 31.05,92.21 144.12,188.72 247.95,176.38l968.49 -115.22c132.39,-15.76 223.04,-137.7 218.95,-259.05l-113.32 -952.13c-5.85,-49.12 -31.34,-207.23 -27.71,-245.02 9.79,-101.96 84.4,-18.68 28.13,-171.23 -123.12,-13.64 -154.39,1.72 -297.43,18.74 23.92,201.04 149.14,976.11 99.97,1120.14 -53.48,19.36 -159.9,55.3 -171.96,-46.13l-124.98 -1050.58 -82.07 9.77c28.15,236.75 77.41,340.39 -73.91,358.39 -111.89,13.31 -108.94,-216.13 -123.08,-334.96l-705.85 83.98c-46.37,5.5 -58.84,45.2 -74.26,75.43zm-28530.89 -2890.02c0,143.14 281.44,396.74 0,396.74 -82.03,0 -136.46,-139.26 -176.14,-204.07 -117.36,-191.74 -385.91,-260.48 -385.91,55.29 0,97.75 98.64,196.9 165.73,231.01 112.82,57.36 215.07,26.36 247.54,165.73 -125.16,186.91 -347.15,7.15 -347.15,281.03 0,123.98 80.58,231.43 198.37,231.43 109.28,0 207.93,-165.31 281.03,-165.31 99.5,0 11.19,114.1 -10.86,154.41 -60.37,110.35 -169.28,279.79 -160.64,367.82 18.92,192.77 291.03,199.32 357.92,-71.31 17.36,-70.25 -34.24,-548.97 195.91,-404.82 52.47,32.87 138.1,211.85 174.99,256.19 95.26,114.49 368.41,133.81 368.41,-136.98 0,-83.87 -67.74,-168.92 -129.07,-201.55 -39.79,-21.18 -74.08,-33.1 -117.49,-47.82 -68.58,-23.25 -100.59,-20.44 -100.59,-97.78 0,-340.61 462.86,5.54 462.86,-347.15 0,-141.03 -67.64,-214.9 -181.84,-214.9 -122.34,0 -241.41,220.02 -371.86,189.64 -184.17,-42.89 8.18,-258.89 8.18,-388.01 0,-335.74 -479.39,-268.1 -479.39,-49.59zm578.58 1967.17c54.05,-28.6 71.35,-19.98 88.28,-94.2 9.5,-41.63 0.94,-98.25 -28.66,-147.03 -36.18,-59.61 -125.91,-170.96 -191.87,-188.57 64.65,134.73 -25.26,324.33 132.25,429.8zm148.78 -1950.64c34.45,-0.76 243.52,-24.33 263.71,-33.88 146.25,-69.18 32.3,-305.63 -168.72,-102.56 -32.03,32.36 -69.46,98.31 -94.99,136.44zm-1603.5 545.52c0,222.04 323.4,55.12 347.15,49.59 -61.84,-84.41 -347.15,-181.62 -347.15,-49.59zm8337.04 12279.54c0,143.14 281.44,396.74 0,396.74 -82.03,0 -136.46,-139.26 -176.14,-204.07 -117.36,-191.74 -385.91,-260.48 -385.91,55.29 0,97.75 98.64,196.9 165.73,231.01 112.82,57.36 215.07,26.36 247.54,165.73 -125.16,186.91 -347.15,7.15 -347.15,281.03 0,123.98 80.58,231.43 198.37,231.43 109.28,0 207.93,-165.31 281.03,-165.31 99.5,0 11.19,114.1 -10.86,154.41 -60.37,110.35 -169.28,279.79 -160.64,367.82 18.92,192.77 291.03,199.32 357.92,-71.31 17.36,-70.25 -34.24,-548.97 195.91,-404.82 52.47,32.87 138.1,211.85 174.99,256.19 95.26,114.49 368.41,133.81 368.41,-136.98 0,-83.87 -67.74,-168.92 -129.07,-201.55 -39.79,-21.18 -74.08,-33.1 -117.49,-47.82 -68.58,-23.25 -100.59,-20.44 -100.59,-97.78 0,-340.61 462.86,5.54 462.86,-347.15 0,-141.03 -67.64,-214.9 -181.84,-214.9 -122.34,0 -241.41,220.02 -371.86,189.64 -184.17,-42.89 8.18,-258.89 8.18,-388.01 0,-335.74 -479.39,-268.1 -479.39,-49.59zm578.58 1967.17c54.05,-28.6 71.35,-19.98 88.28,-94.2 9.5,-41.63 0.94,-98.25 -28.66,-147.03 -36.18,-59.61 -125.91,-170.96 -191.87,-188.57 64.65,134.73 -25.26,324.33 132.25,429.8zm148.78 -1950.64c34.45,-0.76 243.52,-24.33 263.71,-33.88 146.25,-69.18 32.3,-305.63 -168.72,-102.56 -32.03,32.36 -69.46,98.31 -94.99,136.44zm-1603.5 545.52c0,222.04 323.4,55.12 347.15,49.59 -61.84,-84.41 -347.15,-181.62 -347.15,-49.59zm23729.94 -23132.64c0,143.14 281.44,396.74 0,396.74 -82.03,0 -136.46,-139.26 -176.14,-204.07 -117.36,-191.74 -385.91,-260.48 -385.91,55.29 0,97.75 98.64,196.9 165.73,231.01 112.82,57.36 215.07,26.36 247.54,165.73 -125.16,186.91 -347.15,7.15 -347.15,281.03 0,123.98 80.58,231.43 198.37,231.43 109.28,0 207.93,-165.31 281.03,-165.31 99.5,0 11.19,114.1 -10.86,154.41 -60.37,110.35 -169.28,279.79 -160.64,367.82 18.92,192.77 291.03,199.32 357.92,-71.31 17.36,-70.25 -34.24,-548.97 195.91,-404.82 52.47,32.87 138.1,211.85 174.99,256.19 95.26,114.49 368.41,133.81 368.41,-136.98 0,-83.87 -67.74,-168.92 -129.07,-201.55 -39.79,-21.18 -74.08,-33.1 -117.49,-47.82 -68.58,-23.25 -100.59,-20.44 -100.59,-97.78 0,-340.61 462.86,5.54 462.86,-347.15 0,-141.03 -67.64,-214.9 -181.84,-214.9 -122.34,0 -241.41,220.02 -371.86,189.64 -184.17,-42.89 8.18,-258.89 8.18,-388.01 0,-335.74 -479.39,-268.1 -479.39,-49.59zm578.58 1967.17c54.05,-28.6 71.35,-19.98 88.28,-94.2 9.5,-41.63 0.94,-98.25 -28.66,-147.03 -36.18,-59.61 -125.91,-170.96 -191.87,-188.57 64.65,134.73 -25.26,324.33 132.25,429.8zm148.78 -1950.64c34.45,-0.76 243.52,-24.33 263.71,-33.88 146.25,-69.18 32.3,-305.63 -168.72,-102.56 -32.03,32.36 -69.46,98.31 -94.99,136.44zm-1603.5 545.52c0,222.04 323.4,55.12 347.15,49.59 -61.84,-84.41 -347.15,-181.62 -347.15,-49.59zm-21029.33 4798.39c-77.14,-49.69 -91.36,-39.19 -161.8,-84.58 -132.72,128.56 -87.34,120.72 183.43,295.18 273.33,176.1 409.57,173.29 420.32,782.12 132.76,11.41 188.64,29.67 322.86,-0.22l268.2 -87.05c58.48,-27.51 133.67,-57.86 180.89,-103.62 -94.19,-217.7 -171.18,-374.57 -221.96,-609.75 -24.78,-114.85 -35.24,-301.32 -87.64,-423.54 -35.97,-83.88 -144.69,-616.33 -184.27,-641.83 -89.57,-57.71 -154.9,29.27 -113.23,144.08l76.06 258.94c19.38,74.08 28.09,71.02 -27.95,125.31 -58.89,-64.82 -57.46,-208.35 -81.56,-293.31 -71.74,-252.89 -56.72,-356.14 -211.84,-289.03 -39.76,111.2 27.93,219.39 52.53,323.5 19.68,83.26 88.07,303.5 35.44,292.25 -34.2,-7.3 -33.58,-59.7 -61.02,-143.2 -33.57,-102.17 -95.9,-418.66 -168.98,-465.75 -74.36,-47.91 -120.91,6.95 -106.34,93.85l103.12 361.31c19.17,78.71 63.24,109.83 22.41,186.49 -93.7,-96.72 -157.16,-641.17 -313.45,-398.61 -20.03,31.09 -23.45,1.13 16.65,104.04 16.46,42.24 26.77,73.29 41.79,110.54 27.17,67.36 226.7,473.12 122.93,510.55 -58.59,21.13 -69.14,-23.53 -106.59,-47.67zm16193.46 5963.83c86.65,-30.27 98,-16.74 177.12,-44.37 98.94,156.05 56.64,137.8 -247.44,244.04 -306.94,107.25 -438.73,72.61 -591.7,662.02 -131.73,-19.98 -190.33,-15.3 -313.83,-75.78l-240.38 -147.4c-50.42,-40.44 -116.4,-87.54 -151.61,-143.08 142.53,-189.62 254.09,-324.1 358.5,-540.87 50.99,-105.85 104.8,-284.7 184.36,-391.27 54.6,-73.13 284.91,-565.33 329.37,-580.86 100.57,-35.14 143.73,64.71 76.36,166.58l-134.56 233.93c-36.18,67.5 -43.94,62.49 -2.16,128.38 72.42,-49.23 104.63,-189.11 147.95,-266.06 128.94,-229.09 138.51,-332.99 273.59,-231.43 12.64,117.41 -78.49,206.77 -126.77,302.22 -38.63,76.34 -156.66,274.45 -102.87,275.84 34.97,0.91 46.63,-50.18 92.86,-124.95 56.55,-91.47 191.22,-384.59 273.28,-413.25 83.5,-29.18 115.94,35.05 81.41,116.13l-184.81 327.13c-37.05,72.05 -87.19,91.97 -65.44,176.08 113.75,-72.12 302.87,-586.59 398.04,-314.18 12.2,34.91 22.54,6.58 -40.53,97.24 -25.89,37.22 -43.19,65 -66.51,97.7 -42.17,59.12 -331.13,406.91 -238.99,467.59 52,34.26 72.71,-6.69 114.76,-21.38zm-17826.5 1016.43c-121.45,-28.03 -177.6,-224.03 -134.57,-346.85 53.26,-152 234.49,-297.57 395.11,-146.77 197.44,185.35 4.16,554.72 -196.12,508.49l-64.42 -14.87zm573.71 -647.97c-97.65,-22.54 -183.48,-151.82 -204.81,-230.4 -42.4,-156.24 31.28,-267.74 111.92,-249.12 282.16,65.13 429.09,52.01 381.6,257.74 -60.45,261.9 -67.72,272.79 -288.71,221.78zm-918.1 -432.48c26.53,-114.93 66.77,-222.12 180.91,-195.77 195.76,45.19 388.17,46.79 357.86,200.38 -32.81,166.22 -241.1,284.65 -361.6,256.84 -140.07,-32.34 -230.01,-32.53 -177.17,-261.45zm661.69 -661.62l-26.03 112.76c-201.46,-46.51 -367.7,-14.19 -468.83,154.12 -111.71,185.94 -67.84,59.22 -163.07,158.12 -27.2,28.25 -42.75,70.04 -78.57,94.84 -3.43,2.37 -142.4,38.74 -106.59,172.43 9.22,34.43 3.69,14.2 24.54,39.8 91.65,112.59 4.79,78.07 73.22,202.35 21.27,38.62 37.71,51.24 89.81,67.93l-29.74 128.86c-105.65,3.6 -126.79,96.37 -93.59,196.32 20.47,61.6 70.62,275.79 99.87,309.75l153.11 138.65c225.53,234.17 483.34,74.01 582.68,57.51 50.39,-8.36 5.62,11.92 61.3,-12.2 30.9,-13.38 116.86,-108.96 145.03,-142.89 61.38,-73.9 124.11,-122.11 136.97,-177.84 38.85,-168.31 -84.99,0.75 -24.76,-260.2 124.16,25.75 156.09,-68.08 208.77,-129.12 83.55,-96.83 87.98,19.5 130.75,-165.75 15.57,-67.48 -43.81,-51.03 -64.47,-152.69 -44.15,-217.17 -82.91,-61.45 -96.37,-270.58 -12.87,-199.88 -140.41,-307.93 -354.56,-357.36 21.41,-92.74 67.86,-187.92 -68.13,-219.31 -54.28,-12.53 -119.32,2.43 -131.34,54.5zm123.78 1962.65c-14.29,61.9 223.99,255.29 293.63,271.37 115.56,26.67 211.31,-145.6 338.22,-274.89 177.26,-180.58 111.95,-249.63 -49.57,-387.94 -189,-161.84 -120.88,-122.56 -402.88,171.22 -39.99,41.66 -167.46,168.51 -179.4,220.24zm-1463.27 -643.16c-14.2,61.56 9.85,99.34 26.25,149.01 18.76,56.76 24.94,96.79 43.23,152.18 69.35,209.98 50.68,324.29 355.41,224.33 184.19,-60.41 204.67,-31.18 138.54,-243.55 -16.96,-54.48 -30.96,-110.88 -47.1,-163.55 -16.66,-54.37 -31.33,-111.6 -46.89,-163.66 -23.46,-78.48 -10.19,-88.96 -67.97,-150.49 -72.28,0.14 -163.1,30.8 -229.36,52.06 -94.68,30.39 -141.48,11.01 -172.11,143.67zm1080.43 317.27c162.2,37.45 247.99,-196.6 129.97,-303.08 -53.47,-48.23 -118.26,-38.21 -166.45,2.08 -94.08,78.58 -106.04,268.11 36.48,301zm27116.93 -14665.53c-119.83,34.32 -263.9,-109.94 -285.76,-238.23 -27.05,-158.77 60.97,-373.92 274.54,-319.81 262.52,66.49 272.38,483.26 74.78,539.84l-63.56 18.2zm187.96 -844.79c-96.34,27.59 -234.06,-43.92 -290.79,-102.33 -112.79,-116.14 -102.35,-249.38 -22.78,-272.16 278.39,-79.72 400.56,-162.38 458.69,40.6 74,258.4 72.92,271.45 -145.12,333.89zm-1012.68 66.46c-32.47,-113.4 -49.2,-226.66 63.41,-258.91 193.15,-55.31 362.25,-147.13 410.14,1.92 51.83,161.31 -73.01,365.82 -191.9,399.87 -138.2,39.57 -216.97,82.98 -281.65,-142.88zm258.31 -899.36l31.86 111.25c-198.77,56.92 -328.54,165.73 -335.47,361.96 -7.64,216.78 -30.66,84.67 -66.05,217.33 -10.11,37.89 -3.47,81.98 -22.79,121.03 -1.85,3.74 -105.8,102.88 -9.7,202.48 24.74,25.66 10.1,10.64 40.75,22.93 134.72,54.09 42.01,65.98 162.08,141.55 37.32,23.48 57.82,26.55 111.48,15.91l36.41 127.14c-90.68,54.33 -64.23,145.73 13.24,217.08 47.75,43.97 195.39,207.05 237.43,222.59l201.12 47.11c310.74,95.59 458.68,-169.42 537.59,-231.98 40.03,-31.73 10.69,7.7 47.72,-40.37 20.54,-26.68 49.44,-151.94 57.64,-195.27 17.9,-94.38 49.42,-166.95 33.67,-221.93 -47.56,-166.06 -73.99,41.83 -147.72,-215.63 121.09,-37.62 103.56,-135.18 120.07,-214.1 26.18,-125.18 86.42,-25.56 34.08,-208.34 -19.07,-66.58 -63.04,-23.42 -130.37,-102.34 -143.83,-168.59 -102.3,-13.59 -215.39,-190.02 -108.1,-168.62 -272.02,-201.35 -483.31,-140.84 -26.2,-91.51 -31.67,-197.27 -165.85,-158.85 -53.55,15.34 -103.2,59.93 -88.49,111.31zm1059.13 1656.97c17.49,61.07 319.63,114.81 388.35,95.14 114.01,-32.66 114.31,-229.75 162.7,-404.34 67.58,-243.85 -23.01,-272.61 -231.31,-315.35 -243.75,-50.02 -165.13,-48.66 -269.5,344.97 -14.8,55.81 -64.85,228.54 -50.24,279.58zm-1591.67 146.27c17.4,60.73 56.75,82.13 95.16,117.64 43.91,40.56 68.71,72.59 111.54,112.18 162.4,150.1 201.45,259.14 419.6,24.06 131.86,-142.08 163.94,-126.43 3.2,-280.18 -41.23,-39.44 -80.8,-82 -120.44,-120.25 -40.91,-39.49 -81.47,-82.45 -120.31,-120.46 -58.54,-57.28 -52.01,-72.88 -132.36,-98.72 -63.17,35.14 -127.76,105.97 -175.43,156.67 -68.1,72.45 -118.43,78.17 -80.96,209.06zm1098.88 -245.89c160.04,-45.82 121.69,-292.13 -33.14,-328.1 -70.14,-16.29 -121.96,23.87 -144.6,82.46 -44.23,114.32 37.13,285.92 177.74,245.64zm-5960.32 35133.43c-124.15,-11.06 -206.73,-197.46 -181.01,-325.04 31.84,-157.88 191.32,-327 371.16,-199.73 221.06,156.42 80.44,548.87 -124.29,530.63l-65.86 -5.86zm479.1 -720.75c-99.82,-8.88 -202.63,-125.12 -234.57,-200.02 -63.49,-148.93 -5.85,-269.51 76.59,-262.16 288.43,25.69 432.15,-7.52 413.43,202.79 -23.84,267.72 -29.54,279.51 -255.45,259.39zm-968.88 -302.03c10.47,-117.49 35.58,-229.2 152.25,-218.81 200.12,17.83 390.93,-7.07 382.03,149.24 -9.62,169.16 -199.64,315.11 -322.82,304.15 -143.19,-12.76 -232.29,-0.57 -211.46,-234.58zm564.36 -746.38l-10.26 115.27c-205.95,-18.34 -366.16,36.54 -443.17,217.16 -85.06,199.54 -59.05,67.99 -139.76,179.06 -23.06,31.72 -32.71,75.25 -64.78,104.74 -3.07,2.83 -135.71,57.97 -81.84,185.46 13.86,32.84 5.6,13.56 29.78,36.05 106.27,98.9 15.48,76.67 100.36,190.35 26.38,35.33 44.41,45.56 98.31,54.92l-11.73 131.73c-104.15,18.1 -112.33,112.9 -65.69,207.33 28.75,58.2 107.9,263.45 141.54,293.06l170.74 116.27c255.6,200.91 488.92,6.8 585.05,-23.21 48.76,-15.22 7.2,11.02 59.04,-20.52 28.76,-17.51 100.75,-124.01 123.98,-161.49 50.64,-81.64 106.14,-138.03 111.21,-194.99 15.31,-172.06 -84.09,12.43 -60.33,-254.32 126.52,8.42 145.23,-88.92 189.01,-156.62 69.43,-107.4 89.83,7.21 106.7,-182.16 6.14,-68.99 -50.41,-44.52 -84.87,-142.37 -73.6,-209.03 -90.57,-49.46 -132.67,-254.75 -40.26,-196.21 -181.45,-285.68 -400.37,-305.17 8.45,-94.81 41.36,-195.47 -97.66,-207.85 -55.48,-4.94 -117.84,18.82 -122.59,72.05zm392.65 1926.95c-5.63,63.28 256.99,222.04 328.19,228.39 118.13,10.51 189.26,-173.3 297.18,-318.82 150.72,-203.25 76.53,-262.65 -102.48,-377.42 -209.47,-134.3 -136.6,-104.77 -375.5,225.02 -33.87,46.76 -142.67,189.95 -147.39,242.83zm-1537.84 -435.7c-5.6,62.92 23.43,97.04 46.5,143.98 26.4,53.63 38.03,92.44 63.76,144.78 97.58,198.45 94.82,314.24 382.9,173.29 174.12,-85.17 198.43,-59.04 103.71,-260.29 -24.3,-51.63 -45.92,-105.57 -69.16,-155.51 -23.98,-51.56 -46.38,-106.23 -68.96,-155.66 -34.04,-74.5 -22.34,-86.71 -88.02,-139.7 -71.58,10.08 -157.32,52.95 -220.03,83.13 -89.59,43.12 -138.61,30.37 -150.7,165.98zm1113.81 165.59c165.81,14.77 218.57,-228.86 87.03,-318.08 -59.6,-40.42 -122.39,-21.57 -164.58,24.96 -82.37,90.78 -68.14,280.15 77.55,293.12zm-8724.48 -26152.1c0,-202.88 170.11,-314.09 314.08,-314.09 234.13,0 323.44,-29.18 468.83,60.16 183.17,112.55 138.42,286.77 112.62,471.69 -52.01,372.77 -128.87,476.53 -482.26,476.53 -365.62,0 -413.27,-386.01 -413.27,-694.29zm1008.38 -528.99c374.63,-145.41 535.19,747.54 181.84,776.95 -15.86,-190.6 -181.84,-379.19 -181.84,-776.95zm-1289.41 793.48c-293.02,-155.05 -183.81,-554.89 -88.12,-683.24 131.89,-176.9 241.48,-113.99 286.49,-110.24 -34.42,413.67 -130.78,503.36 -198.37,793.48zm165.31 -958.79c-225.54,0 -307.96,97.92 -402.94,291.35 -101.27,206.23 -132.66,783.16 237.63,783.16 43.98,188.73 90.47,253.98 231.03,347.55 395.71,263.39 1229.62,128.19 1240.22,-347.55 128.84,0 179.79,-25.07 245.7,-151.04 118.85,-227.13 72.36,-555.3 -63.51,-741.99 -115.84,-159.17 -155.44,-181.48 -347.5,-181.48 43.38,-90.4 58.47,-247.75 -66.12,-281.02 -42.74,31.31 -32.59,26.76 -46.6,85.64 -43.58,183.11 12.25,231.96 -72.28,324.47 -113.2,123.89 -187.86,125.98 -402.36,141.64 -143.6,10.48 -303.2,-58 -375.08,-152.14 -61.05,-79.96 -21.99,-74.69 -38.05,-191.47 -14.9,-108.29 -16.89,-147.96 -57.48,-224.68 -54.87,29.04 -80.53,49.22 -100.9,115.43 -21.22,68.95 1.76,111.37 18.24,182.13zm363.68 -380.21c2.56,-114.89 69.14,-148.78 181.84,-148.78l66.13 0c74.42,0 165.3,31.27 165.3,99.19l0 49.59 -413.27 0zm-181.84 33.06c5.17,62.1 24.53,109.32 37.87,177.03 9.02,45.78 6.47,167.77 22.3,209.14 65.98,172.43 563.32,190.14 653.49,13.41 29.96,-58.71 19.64,-257.62 79.82,-383.05 -36.25,-17.39 -65.03,-28.84 -115.71,-33.06 0,-177.22 -101.25,-247.96 -281.03,-247.96 -99.79,0 -196.24,33.17 -245.66,84.96 -95.39,99.97 52,162.63 -151.08,179.53zm297.56 1636.56c175.54,0 296.4,30.4 380.07,-132.38 33.42,-65.02 49.73,-164.18 49.73,-264.37 -692.83,0 -679.35,-49.85 -662.9,98 6.81,61.24 14.97,106.58 34.12,150.57 28.91,66.38 107.11,148.18 198.98,148.18zm-214.9 -512.46l628.17 0c115.16,0 47.16,-314.09 -231.43,-314.09 -110.24,0 -293.3,7.25 -357.71,55.57 -60.52,45.4 -168.14,258.52 -39.03,258.52zm-5681.51 20361.56c-85.6,-183.93 21.7,-356.54 152.23,-417.28 212.27,-98.79 280.92,-162.93 450.43,-143.28 213.56,24.75 246.5,201.59 301.13,380.13 110.14,359.9 84.23,486.4 -236.16,635.51 -331.48,154.27 -537.55,-175.59 -667.63,-455.08zm691.02 -905.07c278.29,-289.9 800.63,451.92 492.69,627.67 -94.8,-166.11 -324.86,-267.05 -492.69,-627.67zm-834.21 1263.44c-331.08,-16.93 -400.77,-425.52 -368.18,-582.26 44.94,-216.03 170.84,-205.23 213.23,-220.83 143.34,389.57 93.82,511.54 154.95,803.09zm-254.68 -939.01c-204.48,95.16 -237.88,218.72 -242.38,434.16 -4.79,229.7 210.18,766.01 545.89,609.77 119.51,152.55 189.19,192.09 356.1,217.61 469.9,71.83 1168.89,-402.61 977.77,-838.39 116.81,-54.37 152.42,-98.59 159.03,-240.61 11.91,-256.07 -168.7,-533.98 -370.66,-645.91 -172.18,-95.43 -217.5,-98.95 -391.62,-17.91 1.18,-100.26 -51.53,-249.29 -178.52,-226.88 -25.54,46.42 -18.26,38.01 -6.12,97.31 37.75,184.4 108.98,205.13 71.38,324.67 -50.36,160.08 -117.16,193.48 -305.03,298.18 -125.77,70.09 -299.36,75.35 -404.25,20.33 -89.08,-46.73 -51.45,-58.44 -115.28,-157.54 -59.2,-91.89 -77.75,-127.01 -146.92,-179.44 -37.49,49.48 -52.24,78.6 -42.77,147.22 9.85,71.47 48.59,100.23 93.38,157.43zm169.3 -498.16c-46.16,-105.24 -0.09,-164.06 102.08,-211.61l59.96 -27.91c67.47,-31.4 163.06,-41.39 191.71,20.19l20.93 44.96 -374.68 174.37zm-150.91 106.7c30.89,54.12 68.36,88.76 109.03,144.52 27.49,37.7 76.65,149.37 108.46,180.2 132.57,128.49 590.95,-65.3 598.13,-263.57 2.39,-65.87 -90.9,-241.86 -89.26,-380.97 -40.2,-0.47 -71.13,1.3 -118.85,18.85 -74.78,-160.67 -196.43,-182.08 -359.42,-106.22 -90.47,42.1 -163.92,112.87 -186.87,180.68 -44.3,130.88 115.76,125.5 -61.22,226.51zm960.31 1358.19c159.14,-74.07 281.55,-97.5 288.72,-280.39 2.86,-73.05 -24.19,-169.83 -66.46,-260.66 -628.14,292.33 -636.95,241.45 -559.65,368.55 32.01,52.65 58.54,90.31 94.46,122.11 54.22,47.99 159.63,89.15 242.93,50.39zm-411.07 -373.93l569.52 -265.05c104.4,-48.59 -89.77,-304.66 -342.35,-187.12 -99.95,46.52 -262.85,130.33 -300.86,201.32 -35.71,66.69 -43.36,305.32 73.69,250.85zm11439.18 -21589.4c0,199.12 9.66,280.86 103.47,392.45 252.96,300.9 772.66,129.4 772.66,-276.74 0,-260.61 -206.02,-446.33 -396.74,-446.33 -381.58,0 -397.94,213.39 -479.39,330.62 3.66,-164.49 211.01,-347.15 380.21,-347.15l115.71 0c302.99,0 493.82,403.06 350.47,664.56 -182.48,332.9 -614.35,294.46 -764.27,79.86 -93.44,-133.73 -98.66,-175.27 -98.66,-397.27l16.54 0zm33.05 115.71c0,-372.85 439.17,-555.42 699.21,-285.92 244.2,253.08 60.5,682.67 -302.46,682.67 -205.17,0 -396.75,-190.49 -396.75,-396.75zm-363.67 -16.53c0,631.46 712.18,971.53 1199.81,637.77 186.03,-127.33 372.67,-406.91 326.47,-708.89 -33.05,-216.05 -113.63,-395.19 -276.54,-517.38 -29.08,-21.81 -50.55,-34.45 -79.41,-52.84l-79.29 -52.95c40.07,-9.34 66.32,-17.3 99.18,-33.06 -16.02,-33.38 -26.96,-80.62 -30.17,-92.85 -0.86,-3.27 -2.63,-11.73 -3.56,-14.95 -26.21,-91.07 8.41,-79.62 -414.53,56.28 -272.09,87.42 -431.07,88.91 -623.28,385.1 -54.8,84.45 -118.68,260.59 -118.68,393.77zm1421.65 -991.85c0,107.14 14.37,101.61 33.06,181.84 71.89,-1.6 371.18,-104.11 429.8,-132.24 -10.87,-22.67 -42.11,-149.75 -49.59,-181.85l-413.27 132.25zm5633.42 15391.54c0,199.12 9.66,280.86 103.47,392.45 252.96,300.9 772.66,129.4 772.66,-276.74 0,-260.61 -206.02,-446.33 -396.74,-446.33 -381.58,0 -397.94,213.39 -479.39,330.62 3.66,-164.49 211.01,-347.15 380.21,-347.15l115.71 0c302.99,0 493.82,403.06 350.47,664.56 -182.48,332.9 -614.35,294.46 -764.27,79.86 -93.44,-133.73 -98.66,-175.27 -98.66,-397.27l16.54 0zm33.05 115.71c0,-372.85 439.17,-555.42 699.21,-285.92 244.2,253.08 60.5,682.67 -302.46,682.67 -205.17,0 -396.75,-190.49 -396.75,-396.75zm-363.67 -16.53c0,631.46 712.18,971.53 1199.81,637.77 186.03,-127.33 372.67,-406.91 326.47,-708.89 -33.05,-216.05 -113.63,-395.19 -276.54,-517.38 -29.08,-21.81 -50.55,-34.45 -79.41,-52.84l-79.29 -52.95c40.07,-9.34 66.32,-17.3 99.18,-33.06 -16.02,-33.38 -26.96,-80.62 -30.17,-92.85 -0.86,-3.27 -2.63,-11.73 -3.56,-14.95 -26.21,-91.07 8.41,-79.62 -414.53,56.28 -272.09,87.42 -431.07,88.91 -623.28,385.1 -54.8,84.45 -118.68,260.59 -118.68,393.77zm1421.65 -991.85c0,107.14 14.37,101.61 33.06,181.84 71.89,-1.6 371.18,-104.11 429.8,-132.24 -10.87,-22.67 -42.11,-149.75 -49.59,-181.85l-413.27 132.25zm-19775.47 -15863.14c-15.53,-48.32 -15.78,-99.11 32.59,-114.66l503.6 -161.92c36.26,-11.66 50.73,-4.24 62.39,32.03 46.36,144.19 85.72,198.17 18.57,219.76 -591.35,190.14 -550.82,231.07 -617.15,24.79zm884.69 -110.81c-84.08,27.03 -154.52,-228.15 -80.96,-251.8 576.26,-185.28 537.76,-217.66 581.16,-82.68 12.27,38.18 26.46,31.42 33.61,95.06 5.14,45.86 17.53,62.14 -30.22,77.5l-503.59 161.92zm133.14 -720.02c-21.34,-66.34 55.31,-71.75 125.73,-93.13 240.82,-73.07 455.09,-206.64 488.02,-104.21 32.25,100.3 86.66,197.87 2.83,224.82 -620.02,199.36 -533.24,231.74 -616.58,-27.48zm-771.13 247.95c-11.66,-36.26 -4.24,-50.73 32.03,-62.39l519.33 -166.99c36.26,-11.66 50.73,-4.23 62.39,32.03 32.25,100.31 86.66,197.88 2.83,224.83 -620.02,199.36 -533.24,231.74 -616.58,-27.48zm-771.13 247.94c-20.48,-63.7 42.34,-67.9 109.5,-88.32l473.34 -151.17c32.74,54.64 134.39,234.61 33.75,266.97 -620.03,199.36 -533.24,231.74 -616.59,-27.48zm1017.81 -830.83c74.58,-60.47 491.04,-183.46 598.02,-192.29l75.91 236.07c-708.72,227.88 -579.18,250.9 -673.93,-43.78zm-285.98 352.48c-136.58,43.03 -272.9,87.69 -409.24,131.53 -45.05,-75.15 -68.14,-141.78 -75.9,-236.07 74.57,-60.47 491.03,-183.46 598.01,-192.28 81.28,252.76 130.8,220.06 -112.87,296.82zm-569.45 -42.69c78.62,244.51 39.76,172.56 154.04,263.02 -368.07,118.34 -475.27,88.04 -375.43,398.54 73.78,229.48 270.09,104.17 496.31,31.44 6.66,132.52 -60.59,-26.41 43.86,298.45 60.45,187.99 351.08,43.39 580.62,-30.41 147.47,-47.42 177.84,-73.53 221.43,-175.39 56.97,88.49 174.11,45.38 281.07,13.84 553.15,-163.13 519.89,-169.03 424.29,-466.37 -22.99,-71.51 -60.01,-71.27 -103.44,-105.65 473.3,-152.18 426.49,-99.08 376.16,-359.99 -53.85,-279.18 -247.31,-150.29 -512.78,-64.93 37.57,-131.14 52.15,-53.84 -18.01,-272.03 -30.18,-93.86 -82.69,-147.06 -176.5,-116.9l-550.81 177.11c-55.05,17.7 -63.47,77.18 -69.13,109.04 -39.58,-13.17 -84.62,-59.61 -135.45,-43.26l-550.81 177.1c-76.12,24.48 -109.9,90.26 -85.42,166.39zm6943.22 28655.72c32.16,-39.27 74.68,-67.05 113.99,-34.87l409.34 335.07c29.48,24.13 31.1,40.31 6.96,69.79 -95.93,117.2 -119.91,179.56 -174.49,134.88 -480.66,-393.46 -493.04,-337.2 -355.8,-504.87zm573.27 682.88c-68.34,-55.95 107.74,-253.62 167.53,-204.67 468.4,383.42 474.7,333.51 384.89,443.22 -25.41,31.03 -12.03,39.28 -61.6,79.83 -35.73,29.21 -42.67,48.45 -81.49,16.68l-409.33 -335.06zm676.99 -279c44.13,-53.93 90.28,7.51 146.46,55.05 192.08,162.6 420.57,270.06 352.41,353.31 -66.73,81.53 -119.15,180.19 -187.28,124.41 -503.98,-412.53 -484.07,-322.07 -311.59,-532.77zm-626.81 -513.07c24.13,-29.47 40.31,-31.09 69.79,-6.96l422.13 345.53c29.48,24.13 31.09,40.31 6.97,69.79 -66.75,81.53 -119.16,180.19 -187.3,124.41 -503.97,-412.53 -484.06,-322.07 -311.59,-532.77zm-626.79 -513.07c42.38,-51.77 80.01,-1.29 133.61,44.03l383.89 315.49c-28.12,57.16 -124.1,240.21 -205.9,173.25 -503.98,-412.53 -484.07,-322.07 -311.6,-532.77zm1250.24 403.87c91.27,29.82 420.61,312.83 486.1,397.89l-157.07 191.89c-576.07,-471.54 -525.09,-350.25 -329.03,-589.78zm-451.26 -48.86c-110.27,-91.36 -221.78,-181.61 -332.6,-272.32 38.67,-78.63 82.09,-134.19 157.07,-191.88 91.27,29.8 420.61,312.82 486.08,397.88 -168.17,205.46 -113.82,229.3 -310.55,66.32zm-273.24 -501.44c-162.68,198.74 -123.34,127.05 -137.29,272.14 -299.17,-244.9 -331.91,-351.38 -538.5,-99 -152.69,186.53 59.11,283.39 242.98,433.9 -107.68,77.53 -10.7,-65.22 -226.85,198.84 -125.08,152.8 154.12,318.41 340.69,471.14 119.87,98.11 158.29,109.45 267.5,90.77 -43.4,95.88 56.39,170.86 140.93,243.58 437.25,376.03 424.15,344.89 621.99,103.21 47.58,-58.13 27.29,-89.09 32.59,-144.22 384.71,314.91 314.7,304.41 506.52,120.53 205.24,-196.76 -8.01,-289.29 -223.8,-465.92 130.54,-39.62 73.53,14.58 218.7,-162.78 62.45,-76.29 78.63,-149.27 2.38,-211.68l-447.72 -366.48c-44.75,-36.63 -99.27,-11.42 -129.11,1.12 -10.42,-40.39 4.14,-103.42 -37.18,-137.24l-447.71 -366.48c-61.88,-50.65 -135.46,-43.31 -186.12,18.57zm-20440.25 -9739.21c4.51,-54.28 13.44,-55.04 38.94,-93.3 45.1,-67.67 8.11,-47.96 76.77,-55.48 -4.57,54.96 -14.41,54.14 -37.64,94.61 -32.63,56.83 -8.35,48.37 -78.07,54.17zm78.66 -210.92c-48.44,-31.49 -36.72,-22.08 -62.14,-70.11 39.66,-48.37 125.98,32.09 211.46,86.1 94.13,59.48 129.1,49.59 135.69,128.8 -64.67,-1.43 -67.54,-12.11 -110.7,-38.07 -36.67,-22.05 -45.16,-27.46 -80.93,-51.32 -38.07,-25.4 -57.82,-32.28 -93.38,-55.4zm-12.54 -334.6c21.54,-92.48 78.2,-119.78 99.18,-198.37 55.06,4.58 104.29,42.38 145.57,69.34l399.95 244.75c-19.19,82.36 -78.68,121.58 -99.19,198.37 -86.26,-7.18 -454.53,-265.94 -545.51,-314.09zm363.68 -380.21c-1.18,52.98 5.38,82.66 -49.6,82.66 -21.6,0 -41.94,-23.6 -25.23,-55.83 22,-42.43 14.26,-25.48 74.83,-26.83zm33.06 -16.53c-63.1,-43.85 -50.46,-48.86 -4.17,-118.84l235.6 -377.08c67.37,-101.9 238.02,-430.4 330.62,-479.4 39.15,58.47 29.37,55.05 -16.68,131.56l-231.46 364.2c-55.08,82.73 -259.6,439.77 -313.91,479.56zm-446.34 462.87c0,87.15 -22.29,-21.91 -5.98,73.07 7.61,44.31 12.07,30.86 22.51,75.7 -46.01,12.29 -49.59,3.33 -49.59,66.13 0,77.65 88.03,34.85 28.46,141.86 -34.04,61.15 -59.89,61.21 -78.05,139.16 52.67,35.27 133.64,100.64 198.37,115.72 48.69,-32.61 100.94,-118.41 115.72,-181.84 70.54,37.32 153.82,71.87 165.3,-66.13 144.6,0 49.9,-3.87 155.04,-43.33 60.07,-22.54 50.62,1.56 87.09,-45.15 27.07,-34.68 116.94,-185.74 113.93,-222.45 -8.22,-100.47 -70.98,44.35 74.7,-200.58l390.51 -634.39c152.73,-267.13 420.73,-449.81 104.71,-656.21 -356.44,-232.82 -349.88,-134.51 -701.51,439.62l-381.42 610.43c-65.46,107.12 -8.58,24.5 -97.83,67.48 -38.46,18.52 -120.08,153.31 -140.28,191.67 -44.34,84.22 -1.68,46.65 -1.68,129.24zm19588.92 4156.56c-39.18,-37.84 -34.12,-45.24 -47.62,-89.19 -23.86,-77.74 -32,-36.63 5.62,-94.55 39.67,38.31 32.8,45.41 49.44,89.01 23.37,61.22 32.18,37.07 -7.44,94.73zm-113.57 -194.37c-55.03,17.59 -40.33,14.46 -93.6,3.76 -12.37,-61.32 104.56,-77.25 200.47,-109.27 105.61,-35.26 120.08,-68.6 185.59,-23.58 -42.03,49.17 -52.11,44.64 -99.52,61.63 -40.28,14.45 -49.84,17.6 -90.95,30.2 -43.76,13.41 -61.58,24.35 -101.99,37.26zm-267.03 -202c-57.99,-75.2 -43.28,-136.35 -90.86,-202.32 38.38,-39.74 98.8,-53.94 145.8,-68.85l442.59 -154.85c51.63,66.97 44.36,137.85 90.85,202.32 -60.14,62.26 -493.53,183.71 -588.38,223.7zm-64.32 -522.2c40.28,34.44 67.42,48.14 32.63,90.72 -13.67,16.72 -44.81,17.54 -59.2,-15.79 -18.94,-43.89 -10.71,-27.17 26.57,-74.93zm8.12 -36.06c-73.88,21.12 -69.76,8.16 -94.67,-71.96l-142.92 -421.03c-36.29,-116.65 -182.69,-456.64 -162.05,-559.36 70.05,6.68 61.22,12.09 91.33,96.16l135.57 409.68c29.21,95 176.29,479.28 172.74,546.51zm76.02 638.51c67.49,55.14 -31.07,3.4 52.8,50.86 39.13,22.15 31.54,10.18 72.86,30.47 -19.59,43.41 -28.79,40.51 19.84,80.24 60.13,49.14 82.68,-46.11 127.86,67.72 25.81,65.06 9.5,85.11 58.37,148.5 60.64,-18.47 162.49,-39.81 215.13,-80.4 5.55,-58.34 -27.83,-153.08 -67.59,-204.66 73.53,-31.01 152.98,-73.64 53.38,-169.85 91.49,-111.97 28.57,-41.09 64.54,-147.47 20.56,-60.78 33.24,-38.22 20.14,-96.01 -9.72,-42.91 -69.84,-208.08 -100.17,-228.98 -83,-57.2 -10.57,83.03 -108.06,-184.76l-244.17 -703.79c-110.22,-287.29 -82.11,-610.41 -441.89,-496.29 -405.82,128.7 -325.54,185.83 -103.44,821.39l231.36 681.6c41.54,118.47 13.55,22.14 -9.64,118.45 -9.99,41.5 42.74,189.99 59.66,229.91 37.17,87.62 35.07,30.81 99.02,83.07zm-18309.08 -27033.61c217.12,-80.91 167.97,61.95 300.68,-64.29 77.32,81.3 110.57,205.78 191.98,281.57 -63.66,68.38 -255.87,176.33 -338.05,227.55l-339.08 209.87c-35.79,-50.73 -55.34,-94.79 -90.28,-146.98 -34.85,-52.05 -68.41,-93.61 -90.7,-146.95 23.01,-9.62 39.7,-14.67 68.05,-39.95 78.81,-70.32 -25.14,-57.97 116.09,-216.62l-384 -563.14c-58.54,-85.05 -120.97,-137.54 -58.82,-207.34 52.17,-58.61 125.38,-109.7 184,-57.52 25.67,22.86 420.12,675.96 440.13,723.8zm-263.66 97.28c-144.06,264.62 10.88,62.36 -138.83,230.52 -49.69,55.82 29.25,144.67 68.93,206.76 55.33,86.55 71.45,129.09 147.69,200.36 190.75,178.33 201.52,664.87 592.26,416.24 325.15,-206.91 319.44,-157.29 242.32,-298.96 -32.27,-59.27 -49.19,-70.83 -56.22,-125.53 66.73,62.12 100.22,145.25 164.58,212.92 91.1,-102.33 117.56,-176.85 73.41,-273.57 -50.66,-110.98 -232.73,-306.68 -261.2,-394.64 -0.71,-2.19 12.25,-9.14 -143.59,-261.06 -23.01,-37.2 -19.61,-38.73 -42.05,-69.42 -82.53,-112.87 -126.75,-20.19 -200.97,-21.23 -8.63,-0.13 -54.19,-8.46 -70.77,-8.81 -98,-2.03 -36.05,112.1 -291.66,-333.65 -121.75,-212.3 -243.61,-568.45 -504.75,-275.11 -50.12,56.3 -22.75,138.4 17.36,198.04 43.04,63.97 90.72,136.71 134.53,202.95 43.47,65.67 82.58,120.96 130.71,191.45 41.84,61.29 95.9,158.21 138.25,202.74zm8955.7 20747.42c231.06,17.22 126.71,126.47 300.03,67.24 36.26,106.17 14.46,233.16 56.74,336.04 -86.4,35.51 -306.14,53.26 -402.21,65.45l-395.75 48.97c-11.32,-61.04 -10.67,-109.25 -20.6,-171.26 -9.91,-61.85 -23.02,-113.63 -20.99,-171.41 24.93,0.88 42.2,3.27 78.52,-7.86 100.99,-30.95 1.39,-63.16 196,-148.27l-113.54 -672.09c-17.63,-101.73 -52.42,-175.51 33.21,-212.94 71.89,-31.45 159.76,-47.27 191.21,24.63 13.76,31.5 99.19,789.67 97.38,841.5zm-280.19 -21.81c-241.46,180.21 -16.17,61.2 -222.46,151.42 -68.47,29.93 -33.88,143.65 -23.79,216.64 14.1,101.75 10.97,147.13 50.45,243.74 98.78,241.73 -94.76,688.24 364.12,625.66 381.87,-52.11 355.94,-9.41 345.08,-170.34 -4.55,-67.34 -15.09,-84.91 1.39,-137.54 34.67,84.33 30.35,173.84 60.54,262.21 125.52,-54.89 180.71,-111.54 181.01,-217.86 0.36,-121.99 -83.27,-375.87 -72.37,-467.68 0.27,-2.29 14.94,-3.18 -21.36,-297.17 -5.36,-43.41 -1.63,-43.38 -9.19,-80.64 -27.81,-137.04 -106.72,-71.32 -173.71,-103.27 -7.79,-3.73 -45.7,-30.33 -60.61,-37.59 -88.19,-42.8 -79.6,86.78 -125.54,-425 -21.89,-243.75 16.23,-618.23 -343.6,-460.86 -69.05,30.2 -78.51,116.22 -66.99,187.17 12.37,76.1 25.29,162.11 37.41,240.59 12.06,77.83 24.48,144.41 38.74,228.56 12.4,73.16 21.01,183.81 40.88,241.96zm22756.94 -9325.83c202.14,113.25 61.4,168.17 243.51,187.73 -12,111.55 -85.42,217.43 -90.58,328.54 -93.31,-4.33 -299.97,-81.1 -392.19,-110.65l-379.37 -122.86c15.54,-60.1 36.5,-103.52 53.7,-163.92 17.16,-60.24 27.16,-112.71 53.42,-164.22 22.22,11.33 36.86,20.8 74.48,26.06 104.61,14.62 27.95,-56.66 240.3,-51.56l181.11 -657.11c27.01,-99.65 26.66,-181.22 120.09,-178.95 78.44,1.87 164.77,24.67 162.89,103.12 -0.84,34.37 -243.81,757.61 -267.36,803.82zm-244.72 -138.17c-295,61.29 -40.52,48.63 -265.61,43.23 -74.7,-1.81 -91.41,115.87 -113.11,186.29 -30.22,98.17 -52.23,137.98 -57.28,242.22 -12.63,260.83 -376.73,583.73 65.61,720.93 368.12,114.14 326.57,141.89 384.74,-8.56 24.33,-62.95 22.21,-83.33 59.38,-124.07 -4.21,91.08 -45.95,170.38 -55.94,263.23 136.96,3.3 210.92,-24.72 256.12,-120.95 51.88,-110.41 83.37,-375.85 132.05,-454.46 1.21,-1.96 14.88,3.44 106.22,-278.35 13.49,-41.61 16.86,-40.01 25.75,-76.97 32.71,-135.96 -66.58,-109.74 -113.8,-167.01 -5.48,-6.67 -28.6,-46.8 -39.04,-59.68 -61.84,-76.06 -108.82,45.01 65.82,-438.24 83.17,-230.16 275.97,-553.45 -116.66,-562.89 -75.34,-1.8 -120.27,72.16 -139.81,141.33 -20.95,74.2 -45.58,157.61 -67.76,233.86 -21.96,75.64 -38.84,141.23 -61.48,223.52 -19.68,71.55 -58.64,175.47 -65.2,236.57zm-18374.1 -10459.04l-49.59 0c10.41,-125.09 238.75,-418.48 264.49,-528.99l49.6 0c-1.54,68.78 -21.28,93.94 -50.31,148.07 -22.64,42.21 -49.39,71.54 -76.38,121.99 -36.06,67.38 -124.07,199.96 -137.81,258.93zm49.6 -1636.56c0,-21.09 84.67,-151.09 102.41,-178.6 50.86,-78.87 72.77,-152.01 129.02,-152.01 35.98,0 593.02,351.05 661.4,396.57 55.11,36.69 101.52,66.09 162.02,102.47 60.57,36.4 102.16,65.3 163.15,101.34 61.08,36.09 302.83,163.48 302.83,226.16 0,27.53 -150.37,287.41 -214.9,330.62 -119.95,-27.95 -540.4,-317.56 -671.05,-403.45 -54.18,-35.62 -634.88,-360.4 -634.88,-423.1zm-16.54 -281.02c-127.41,-30.5 -114.43,-28.61 -242.62,187.17 -171.48,288.63 -294.28,228 344.24,587.35l201.28 129.34c45.12,40.46 44.25,43.28 44.25,121.05 -49.24,-13.14 -40.29,-18.48 -89.02,-45.12 -78.61,-42.99 -141.7,-25.04 -165.2,72.3 -15.89,65.81 21.17,53.62 39.32,121.6l-236.08 325.97c-272.03,362.72 -288.41,365.22 -112.04,468.49 191.11,111.91 166.67,135.64 282.75,-66.34l313.33 -579.34 115.72 0c80.39,-151.93 82.57,-151.79 -99.18,-247.96 5.17,-232.39 -3.76,-168.71 -178.96,-283.91l-531.87 -327.74c2.34,-105.13 116.13,-231.9 170.53,-325.39 25.76,-44.27 40.73,-77.52 77.43,-104.41 33.74,72.95 -16.53,43.15 -16.53,132.25 0,60.58 25.45,8.87 39.96,106.24 8.98,60.32 -2.69,61.05 48.28,102.85l611.66 380.41c145.06,78.46 642.19,425.49 716.57,411.89 237.65,-43.43 -103.23,-9.54 120.9,-9.54 69.91,0 114.81,-96.88 165.9,-182.13 34.13,-56.98 40.88,-59.86 10.1,-124.32 -24.48,-51.28 -9.54,1.73 -24.4,-59.95 -27.49,-114.1 18.9,-68.4 -227.27,-219.17 -164.25,-100.6 -1063.15,-687.3 -1131.08,-687.3 -96.82,0 -0.83,19.06 -109.23,20.45 -60.55,0.76 -111.1,-8.25 -138.74,95.26zm330.62 99.19c17.71,48.91 -2.72,19.29 45.39,53.79l488.87 304.61c78.22,46.22 495.4,329.41 573.31,335.89 -4.92,-59.05 31.01,-29.49 -102.29,-112.61 -51.52,-32.13 -91.79,-57.07 -142.47,-88.96 -99.11,-62.38 -188.13,-113.08 -287.47,-175.4l-426.7 -267.64c-34.02,-23.11 -107.88,-95.64 -148.64,-49.68zm11010.34 23337.19l-35.4 34.73c-80.18,-96.58 -122.66,-465.92 -181.69,-562.83l35.41 -34.74c47.07,50.18 50.6,81.96 67.79,140.93 13.4,45.98 14.85,85.65 30.91,140.57 21.45,73.35 51.49,229.62 82.98,281.34zm-1110.77 -1202.91c-14.77,-15.05 -45.38,-167.14 -51.99,-199.21 -18.93,-91.91 -54.51,-159.46 -14.36,-198.86 25.68,-25.2 669.15,-164.75 749.84,-180.15 65.03,-12.4 118.75,-23.92 187.42,-40.32 68.72,-16.44 118.65,-24.94 187.42,-41.93 68.88,-17.02 330.66,-95.4 374.56,-50.66 19.28,19.65 93.95,310.47 78.15,386.5 -105.19,64.06 -608.14,151.8 -761.55,182 -63.62,12.52 -705.58,187.39 -749.49,142.63zm-208.62 -189c-112.31,67.46 -101.72,59.72 -42.1,303.52 79.75,326.12 -50.37,368.84 657.07,178.15l234.26 -48.64c60.54,-2.72 61.9,-0.1 116.36,55.41 -44.35,25.11 -41.7,15.03 -95.14,30.14 -86.22,24.37 -118.68,81.37 -67.28,167.31 34.75,58.1 52.66,23.44 113.23,59.26l59.78 398.01c59.86,449.43 49.92,462.68 248.14,412.87 214.79,-53.96 213.96,-19.91 155.36,-245.37l-182.09 -632.98 82.6 -81.04c-49.02,-164.75 -47.37,-166.18 -244.45,-107.53 -159.07,-169.5 -120.85,-117.79 -326.58,-77.32l-609.18 138.56c-71.96,-76.68 -79.52,-246.86 -106.17,-351.69 -12.62,-49.64 -25.22,-83.86 -17.85,-128.76 75.17,28.44 18.42,42.38 80.82,105.98 42.43,43.24 24.38,-11.5 102.93,47.84 48.65,36.77 40.83,45.47 106.49,39.6l703.02 -156.84c158.5,-45.59 756.39,-146.05 799.96,-207.85 139.21,-197.44 -80.37,65.49 79.61,-91.48 49.9,-48.96 14.1,-149.56 -9.13,-246.2 -15.55,-64.57 -12.75,-71.35 -79.86,-95.81 -53.39,-19.46 -5.6,7.92 -59.41,-25.7 -99.53,-62.19 -34.41,-62.06 -315.72,2.73 -187.69,43.22 -1240.22,253.99 -1288.71,301.56 -69.11,67.81 12.76,14.19 -63.65,91.1 -42.68,42.95 -85.08,71.92 -32.31,165.17zm305.46 -160.76c46.9,22.51 11.57,15.68 70.07,6.61l562.29 -124.95c88.2,-21.79 584.32,-111.83 644.47,-161.77 -44.87,-38.7 1.48,-42.77 -151.88,-8.74 -59.28,13.15 -105.49,23.55 -164,36.28 -114.43,24.89 -213.48,51.04 -328.04,76.13l-492.02 107.81c-40.47,7.33 -143.98,7.28 -140.89,68.63zm1651 -20634.13l-334.01 701.48c-80.19,168.41 172.38,228.55 435.67,353.92 101.4,48.28 156.83,-21.73 204.68,-122.24l298.49 -626.87c83.7,-175.78 -195.89,-258.05 -398.72,-354.63 -89.01,-42.38 -163.75,-40.62 -206.11,48.34zm309.2 1465.48c-36.51,19.67 -55.58,28.46 -110.86,2.14l-850.74 -405.09c-55.29,-26.32 -60.49,-46.66 -68.23,-87.41 24.64,-30.51 44.06,-52.26 88.13,-31.28l910.44 433.51c45.35,21.59 38.34,50.02 31.26,88.13zm-343.32 -1701.44c16.37,-34.39 31.7,-39.83 66.09,-23.46l791.05 376.66 -568.54 1194.02 -791.04 -376.66c-34.39,-16.38 -39.83,-31.7 -23.46,-66.09l525.9 -1104.47zm1004.25 313.39c-36.52,19.67 -55.58,28.46 -110.87,2.14l-850.74 -405.09c-55.28,-26.32 -60.48,-46.66 -68.23,-87.41 24.64,-30.51 44.06,-52.25 88.13,-31.27l910.44 433.51c45.35,21.59 38.35,50.01 31.27,88.12zm-830.83 -523.77c105.02,-123.36 481.89,-106.13 656.7,151.45 38.47,56.7 87.74,126.11 74.63,196.78l-731.33 -348.23zm433.52 -141.44c-0.24,-81.94 42.36,-204.31 90.26,-304.91 266.59,126.94 243.62,84.76 137.66,247.82 -91.51,140.81 -64.32,134.98 -227.92,57.09zm-66.09 23.45c-38.11,0.11 -63.97,-10.5 -103.72,-12.66 -122.07,-6.63 -134.82,6.18 -234.78,37.42l-33.42 10.7c-188.61,70.7 -138.42,-24.74 -220.3,47.78 -57.85,51.23 -44.95,136.59 27.91,179.04l-561.42 1179.09c-242.64,10.26 -170.44,175.17 -99.5,208.95l955.22 454.83c83.68,39.84 213.06,-122.15 77.46,-201.14l568.53 -1194.01c101.2,38.24 120.72,-22.81 146.41,-76.76 35.86,-75.31 -30.03,-34.15 -113.8,-269.71 -56.68,-159.37 -114.76,-170.26 -184.72,-256.93 59.8,-48.26 89.56,-107.49 135.98,-176.55 129.93,-193.35 116.23,-161.09 -182.19,-303.18 -97.12,-46.25 -123.87,135.74 -162.49,256.11 -27.02,84.24 -25.21,48.58 -15.17,117.02zm172.69 -247.34c-68.49,84.8 -34.83,18.81 -56.85,119.4l97.37 64.68c34.01,-20.22 46.86,-28.42 80.31,-53.31 -1.76,-41.66 -3.5,-56.8 -9.24,-95.95l-111.59 -34.82zm-25913.07 31028.1l68.84 773.88c16.52,185.8 264.61,109.23 555.08,83.4 111.86,-9.95 124.02,-98.42 114.15,-209.3l-61.51 -691.57c-17.25,-193.93 -299.85,-122.69 -523.62,-102.79 -98.19,8.74 -161.67,48.24 -152.94,146.38zm1011.06 1104.98c-21.44,35.5 -33.4,52.76 -94.38,58.19l-938.56 83.47c-60.99,5.43 -75.81,-9.44 -103.18,-40.6 5.71,-38.8 11.38,-67.4 60,-71.73l1004.41 -89.34c50.03,-4.46 58.44,23.59 71.71,60.01zm-1160.36 -1290.86c-3.38,-37.93 7.06,-50.41 45,-53.79l872.7 -77.63 117.16 1317.27 -872.69 77.62c-37.94,3.37 -50.41,-7.06 -53.79,-44.99l-108.38 -1218.48zm1024.16 -240.46c-21.45,35.5 -33.4,52.75 -94.4,58.18l-938.55 83.48c-60.99,5.43 -75.8,-9.45 -103.19,-40.61 5.72,-38.79 11.39,-67.39 60.01,-71.71l1004.42 -89.34c50.03,-4.46 58.44,23.58 71.71,60zm-981.72 -28.86c27.75,-159.61 361.08,-336.3 642.54,-203.3 61.95,29.28 139.65,64.02 164.28,131.54l-806.82 71.76zm301.48 -342.13c-41.85,-70.45 -67.35,-197.49 -77.22,-308.47 294.1,-26.16 252.89,-50.81 244.5,143.47 -7.25,167.78 13.2,148.94 -167.28,165zm-45 53.78c-32.77,19.47 -60.43,23.47 -95.76,41.81 -108.5,56.33 -112.97,73.84 -183.19,151.55l-23.34 26.2c-126.51,156.74 -131.79,49.04 -165.45,153.1 -23.79,73.53 30.7,140.48 115.03,140.02l115.71 1300.79c-203.76,132.14 -57.77,237.48 20.49,230.52l1053.82 -93.74c92.32,-8.21 121.42,-213.48 -35.51,-212.59l-117.17 -1317.26c106.59,-18.49 92.38,-80.99 87.09,-140.51 -7.39,-83.08 -43.22,-14.15 -235.08,-174.45 -129.81,-108.45 -185.36,-88.31 -289.66,-127.4 26.97,-71.95 22.5,-138.09 27.38,-221.16 13.64,-232.55 18.24,-197.8 -310.98,-168.52 -107.15,9.53 -37.7,179.86 -9.79,303.15 19.54,86.29 2.98,54.65 46.41,108.49zm23.02 -300.78c-15.89,107.84 -20.43,33.9 11.72,131.73l116.73 6.22c19.02,-34.7 25.92,-48.29 42.07,-86.73 -22.68,-34.98 -31.88,-47.14 -56.72,-77.94l-113.8 26.72zm16457.93 -12868.46l278.99 725.12c66.98,174.09 284.45,32.25 556.62,-72.46 104.81,-40.33 92.18,-128.73 52.19,-232.62l-249.31 -648c-69.91,-181.7 -322.03,-35.5 -531.7,45.17 -92.01,35.4 -142.17,90.83 -106.79,182.79zm1275.94 784.35c-10.86,40.02 -17.6,59.91 -74.75,81.9l-879.41 338.35c-57.15,21.99 -75.49,11.77 -110.38,-10.67 -5.17,-38.87 -7.58,-67.93 37.97,-85.46l941.12 -362.1c46.88,-18.04 62.68,6.61 85.45,37.98zm-1470.6 -922c-13.68,-35.55 -7.08,-50.41 28.47,-64.09l817.71 -314.62 474.88 1234.26 -817.7 314.61c-35.55,13.68 -50.41,7.08 -64.09,-28.47l-439.27 -1141.69zm918.55 -512.83c-10.87,40.03 -17.61,59.91 -74.76,81.9l-879.41 338.35c-57.15,21.99 -75.48,11.76 -110.38,-10.66 -5.17,-38.88 -7.58,-67.93 37.98,-85.46l941.12 -362.1c46.88,-18.04 62.67,6.6 85.45,37.97zm-951.81 242.22c-17.21,-161.09 254.68,-422.63 561.86,-372.16 67.61,11.12 151.88,23.15 194.12,81.3l-755.98 290.86zm195.77 -411.84c-59.6,-56.23 -119.06,-171.36 -159.07,-275.35 275.58,-106.02 229.17,-118.39 274.53,70.71 39.17,163.3 53.65,139.56 -115.46,204.64zm-28.47 64.08c-26.15,27.72 -51.65,39.18 -80.57,66.53 -88.83,83.99 -88.32,102.06 -134.45,196.08l-15.24 31.61c-78.53,185.48 -113.22,83.38 -116.97,192.7 -2.65,77.23 68.15,126.62 149.1,102.98l468.95 1218.82c-159.56,183.09 9.77,244.21 83.1,216l987.41 -379.91c86.5,-33.29 58.03,-238.64 -92.6,-194.64l-474.89 -1234.25c97.4,-47.09 66.55,-103.27 45.09,-159.04 -29.95,-77.85 -45.44,-1.72 -273.99,-103.08 -154.62,-68.57 -202.5,-33.93 -313.53,-42.84 6.15,-76.59 -16.33,-138.95 -34.48,-220.16 -50.84,-227.33 -36.87,-195.19 -345.34,-76.5 -100.4,38.62 13.22,183.29 73.96,294.15 42.51,77.59 17.89,51.73 74.45,91.55zm-60.58 -295.52c14.38,108.06 -10.32,38.22 47.49,123.43l113.94 -26.12c8.74,-38.59 11.64,-53.56 16.61,-94.96 -31.44,-27.39 -43.62,-36.55 -75.97,-59.33l-102.07 56.98zm4712.51 -10923.23c-77.83,-33.86 -234.46,-46.06 -286.15,-81.21 -50.93,-34.64 -84.06,-141.28 -151.36,-193.68 39.02,-46.94 133.66,-89.98 188.22,-131.57 42.56,33.13 49.01,53.24 75.5,96.76l132.81 200.22c26.7,37.38 50.17,56.49 40.98,109.48zm-469.82 -362.65c-97.74,-81.25 -680.31,-1069.52 -767.52,-1137.42l13.86 -30.02c77.33,43.84 194.9,327.11 264.36,176.72 53.78,-116.46 -113.95,-180.53 -105,-285.21 75.15,42.6 342.59,494.34 397.05,576.27l378.54 583.1c-38.72,23.64 -47.8,31.37 -89.26,62.05 -46.78,34.61 -50.89,29.4 -92.03,54.51zm-647.41 -1318.66c-16.89,-7.8 -51.43,-91.74 -55.38,-116.63 106.16,-64.81 76.36,8.04 150.08,69.31 -27.43,35.22 -34.02,37.81 -64.67,61.19l-30.03 -13.87zm-187.07 168.52c-16.64,-27.26 -123.4,-143.04 -20.73,-191.66 31.97,26.59 65.97,80.91 92.33,115.47 -32.36,41.57 -39.24,34.62 -71.6,76.19zm710.92 1220.55c132.62,61.24 82.28,-32.71 214.38,170.2 72.29,111.04 8.31,77.85 274.23,141.94 57.35,13.83 160.6,29.66 217.9,50.55l13.86 -30.01c-49.56,-38.58 -310.78,-450.46 -313.23,-470.12 -20.26,-162.6 108.2,-1.28 -151.87,-392.51 -30.35,-45.64 -55.25,-77.22 -81.93,-119.3l-307.33 -472.29c-288.83,-455.7 -309.79,-569.52 -526.93,-436.88 -119.75,73.14 -149.38,79.93 -188.51,164.65 -44.77,96.94 67.32,215.36 163.5,363.32l685.93 1030.45zm-209.94 -807.09c30.43,-65.9 -20.57,-76.55 -69.25,-86.62l-34.65 75.05c0.41,0.32 75.87,72.26 103.9,11.57zm260.81 539.24c157.35,-8.51 65.27,-97.32 63.53,-98.12 -71.67,-33.1 -79.57,53.05 -63.53,98.12zm13341.81 26698.03c-64.95,-54.65 -211.6,-111.01 -251.12,-159.43 -38.94,-47.73 -40.28,-159.39 -89.85,-228.8 50.78,-33.87 153.77,-48.14 217.92,-72.44 31.35,43.89 31.8,65 44.78,114.27l70.2 229.78c14.94,43.44 31.98,68.45 8.07,116.62zm-346.92 -481.56c-70.51,-105.75 -347.1,-1219.1 -411.33,-1309.05l21.84 -24.82c61.62,64.07 93.54,369.1 203,244.76 84.75,-96.29 -57.75,-205.53 -19.32,-303.31 59.88,62.26 187.41,571.5 216.25,665.56l196.56 666.83c-43.85,11.62 -54.76,16.44 -103.24,34.02 -54.71,19.84 -57.16,13.67 -103.76,26.01zm-244.53 -1448.52c-13.97,-12.29 -23.14,-102.6 -19.83,-127.58 120.24,-31.85 70.9,29.48 124.09,109.23 -36.33,25.93 -43.39,26.54 -79.43,40.21l-24.83 -21.86zm-227.36 108.18c-8.17,-30.87 -77.49,-172.28 34.78,-189.61 23.06,34.6 40.16,96.36 55.58,137 -42.87,30.62 -47.49,22 -90.36,52.61zm333.39 1372.59c109.65,96.52 88.19,-7.89 156.95,224.27 37.63,127.04 -14.23,76.98 222.37,214.24 51.03,29.6 145.48,74.22 194.44,110.58l21.84 -24.81c-36.5,-51.11 -169.43,-520.38 -166.17,-539.92 26.94,-161.63 104.07,29.62 -33.65,-419.52 -16.08,-52.4 -30.94,-89.77 -44.51,-137.71l-159.91 -540.31c-146.9,-519.14 -134.54,-634.21 -380.48,-568.99 -135.64,35.95 -165.97,34.01 -227.64,104.06 -70.55,80.15 3.12,225.61 53.12,394.86l363.64 1183.25zm28.9 -833.44c47.96,-54.49 2.12,-79.24 -41.67,-102.77l-54.61 62.05c0.3,0.42 52.11,90.89 96.28,40.72zm96.23 591.22c153.24,36.71 90.31,-74.67 88.87,-75.93 -59.26,-52.17 -91.39,28.15 -88.87,75.93zm-26947.27 -27820.05c52.63,6.73 318.93,75.32 379.28,69.35 55.74,-85.28 76.9,-366.95 100.41,-493.53 24.35,-131.05 187.6,-1027.55 -24.17,-947.95 -140.1,52.67 -229.34,472.89 -284.13,654.08l-96.37 354.18c-31.65,118.6 -58.94,238.09 -75.02,363.87zm-324.14 1110.83c80.96,113.29 346.43,52.2 495.69,-185.89 268.19,-427.8 -223.9,-578.34 -378.35,-287.13 -42.15,79.46 -47.44,141.65 -26.53,244.67 25.94,127.83 12.81,159.21 -90.81,228.35zm330.19 -812.87c87.64,233.12 334.9,54.05 321.1,-85.39 -47.08,-30.78 -274.13,-74.49 -342.5,-65.51 7.91,60.24 -3.62,84.33 21.4,150.9zm27650.81 14129.61c52.63,6.73 318.93,75.32 379.28,69.35 55.74,-85.28 76.9,-366.95 100.41,-493.53 24.35,-131.05 187.6,-1027.55 -24.17,-947.95 -140.1,52.67 -229.34,472.89 -284.13,654.08l-96.37 354.18c-31.65,118.6 -58.94,238.09 -75.02,363.87zm-324.14 1110.83c80.96,113.29 346.43,52.2 495.69,-185.89 268.19,-427.8 -223.9,-578.34 -378.35,-287.13 -42.15,79.46 -47.44,141.65 -26.53,244.67 25.94,127.83 12.81,159.21 -90.81,228.35zm330.19 -812.87c87.64,233.12 334.9,54.05 321.1,-85.39 -47.08,-30.78 -274.13,-74.49 -342.5,-65.51 7.91,60.24 -3.62,84.33 21.4,150.9zm-19589.83 -4403.38c0,-79.96 52.29,-132.25 132.25,-132.25 240.79,0 160.25,268.19 1.89,260.13 -46.72,-2.38 -134.14,-44.22 -134.14,-127.88zm-611.64 16.53c-25.73,-17.23 -49.59,-21.91 -49.59,-66.12 0,-66.41 191.1,-28.64 49.59,66.12zm446.33 -132.24c-169.33,0 -318.84,-42.9 -451.29,-21.93 -330.29,52.29 -596.15,60.95 -892.91,99.38 -126.19,16.34 -254.66,28.71 -259.29,236.63 107.96,0 156.64,-12.45 254.57,-26.45l760.96 -82.12c146.56,-20.27 523.99,-96.02 605.98,-58.66 103.3,47.08 46.87,167.23 296.07,167.23 309.65,0 343.49,-429.8 0,-429.8 -163.14,0 -183.22,115.72 -314.09,115.72zm-1256.34 958.79c91.73,21.37 196.6,96.85 335.52,-94.29l301.94 -392.35c55.45,-73.72 114.95,-130.06 156.02,-207.66 -87.1,0 -245.7,0.86 -304.75,58.93 -89.44,87.94 -475.69,586.53 -488.73,635.37zm1057.97 -1504.31c0,-181.25 281.03,-207.91 281.03,-16.54 0,173.13 -281.03,203.28 -281.03,16.54zm-82.65 0c0,188.95 33.06,104.31 33.06,198.37 0,115.71 -122.68,150.22 -148.78,247.96 91.77,0 98.03,16.53 181.84,16.53 66.76,-286.57 396.74,-227.31 396.74,-512.45 0,-303.93 -462.86,-219.03 -462.86,49.59zm12305.06 15745.7c65.06,-46.47 138.01,-34.32 184.48,30.75 139.96,195.94 -125.09,286.28 -210.57,152.74 -25.22,-39.4 -41.99,-134.86 26.09,-183.49zm-368.97 -488.1c-0.93,-30.95 -10.99,-53.08 24.98,-78.78 54.04,-38.6 134.38,138.86 -24.98,78.78zm367.04 286.33c-98.43,-137.79 -150.42,-284.38 -244.47,-379.97 -234.53,-238.37 -396.11,-449.68 -599.87,-668.82 -86.65,-93.19 -171.38,-190.54 -343.27,-73.45 62.76,87.85 101.18,120.22 169.5,191.77l509.13 571.49c101.68,107.47 382.7,370.57 399.96,459 21.73,111.42 -108.84,135.34 36.01,338.12 179.98,251.97 549.39,29.69 349.74,-249.82 -94.83,-132.75 -200.67,-81.83 -276.73,-188.32zm-1510.44 -465.02c35.93,87.06 35.46,216.27 271.74,218.22l494.77 17.64c92.22,2.27 172.65,17.94 259.67,6.25 -50.63,-70.87 -143.52,-199.43 -225.09,-213.73 -123.55,-21.66 -753.77,-46.16 -801.09,-28.38zm1839.04 -13.48c147.49,-105.35 332.53,107.83 176.81,219.07 -140.88,100.63 -328.77,-110.53 -176.81,-219.07zm-48.04 -67.26c-153.76,109.83 -65.67,87.54 -142.21,142.21 -94.15,67.25 -193.54,-12.51 -288.24,23.06 53.34,74.67 43.52,89.38 92.24,157.57 271.99,-112.24 415.57,190.72 647.6,24.98 247.31,-176.66 -90.81,-503.95 -309.39,-347.82zm-19054.52 8513.18l388.08 123.01 -29.72 93.77 -279.41 148.28 224.24 71.08 -34.71 109.49 -417 -132.18 32.96 -103.98 265.28 -141.51 -184.43 -58.46 34.71 -109.5zm-521.37 -165.26l169.35 53.68 -1.95 305.95 168.34 -253.21 158.06 50.1 -307.76 394.66c-35,45.01 -65.28,73.3 -90.68,84.79 -35.86,16.46 -82.24,15.67 -139.27,-2.4 -23.15,-7.34 -57.77,-21.86 -104.19,-43.53l22.97 -115.89c20.65,14.69 45.33,26.51 73.71,35.5 18.83,5.98 35.53,6.54 49.96,1.63 14.48,-5.03 29.33,-17.35 44.48,-37.12l-43.02 -474.16zm-528.12 -167.4l190.34 60.33 29.61 137.74 114.19 -92.16 177.03 56.12 -205.92 154.11 83.49 267.61 -187.25 -59.36 -34.49 -159.25 -133.79 105.91 -173.79 -55.08 221.59 -170.91 -81.01 -245.06zm2946.49 30.11l-50.48 159.27 88.24 27.97 -37.1 117.03 -88.24 -27.97 -47.07 148.5c-5.67,17.89 -7.68,30.28 -6.15,37.13 2.44,10.54 10.13,18.02 23.32,22.2 11.84,3.75 29.48,5.49 52.91,5.38l-23.29 114.58c-42.41,-3.97 -80.77,-11.38 -115.21,-22.3 -39.95,-12.66 -67.78,-27.11 -83.38,-43.31 -15.73,-16.23 -24.77,-36.27 -27.17,-59.97 -2.54,-23.76 3.77,-59.06 18.6,-105.87l46.69 -147.3 -59.18 -18.76 37.09 -117.03 59.19 18.76 24.39 -76.94 186.84 -31.37zm-535.38 195.04c6.63,-32.09 5.32,-56.93 -3.91,-74.51 -9.33,-17.76 -24.95,-30.11 -47.01,-37.1 -25.56,-8.1 -49.1,-4.32 -70.84,11 -13.69,9.57 -25.81,26.31 -36.29,50.51l158.05 50.1zm138.69 128.49l-321.5 -101.9c-5.35,26.72 -4.42,48.04 2.61,64.19 9.71,23.06 27.16,38.5 52.05,46.39 15.74,4.99 32.04,5.87 48.68,2.4 10.32,-2.2 22.38,-8 36.34,-17.49l153.45 64.62c-37.55,34.43 -76.16,55.36 -116.13,62.82 -39.92,7.33 -91.78,0.96 -155.68,-19.29 -55.42,-17.57 -96.53,-39.19 -123.46,-64.9 -26.81,-25.66 -45.28,-58.91 -55.35,-99.55 -10.06,-40.64 -7.89,-83.92 6.69,-129.92 20.72,-65.37 58.51,-111.72 113.13,-138.81 54.81,-27.2 119.09,-29.17 192.94,-5.77 59.85,18.98 104.3,43.14 133.12,72.26 29,29.02 47.14,63.79 54.29,103.8 7.25,40.19 2.06,87.84 -15.43,142.99l-5.75 18.16zm-755.35 -513.43l150.12 47.58 -21.7 68.48c23.91,-25 45.32,-40.71 64.19,-47.01 18.88,-6.3 39.64,-5.94 62.23,1.22 23.68,7.5 47.16,23.08 70.63,46.66l-85.88 98.61c-16.32,-13.91 -30.14,-22.58 -41.18,-26.08 -20.98,-6.65 -40.03,-3.07 -57.06,10.49 -24.31,19.23 -47.13,62.33 -68.37,129.31l-44.47 140.3 -161.16 -51.08 132.65 -418.48zm-324.31 139.09c-24.57,0.94 -49.79,0.64 -75.52,-0.85 -35.28,-1.71 -58.72,0.33 -69.98,5.94 -11.78,5.89 -19.33,14.31 -22.83,25.34 -4,12.64 -2.81,24.27 3.38,35.11 6.36,10.75 18,18.88 35.08,24.3 17.88,5.66 35.79,6.61 53.99,2.91 18.12,-3.89 32.38,-11.06 42.76,-21.4 10.41,-10.46 18.67,-25.76 24.98,-45.66l8.14 -25.69zm-112.35 -128.43l-148.1 -64.71c14.27,-24.93 29.31,-43.41 45.06,-55.29 15.76,-11.88 35.58,-20.25 59.75,-25.02 17.26,-3.56 39.58,-3.45 66.67,0.26 27.1,3.7 55.67,10.24 85.67,19.74 48.03,15.23 85.91,30.2 113.26,44.79 27.49,14.63 48.25,33.65 62.21,56.87 9.96,16.19 15.44,36.28 16.51,60.45 0.89,24.26 -1.73,46.08 -8,65.86l-58.58 184.82c-6.23,19.64 -9.78,35.54 -10.9,47.48 -0.98,11.97 -0.13,27.93 2.85,47.97l-150.52 -47.71c-2.64,-12.68 -3.95,-22.13 -4.04,-28.37 -0.09,-6.25 0.97,-15.68 2.92,-28.38 -27.41,13.65 -52.96,21.4 -76.4,23.44 -32.06,2.57 -66.84,-2.09 -104.37,-13.98 -49.91,-15.82 -84.18,-39.42 -102.8,-70.78 -18.54,-31.19 -22.41,-63.8 -11.67,-97.7 10.11,-31.88 27.65,-55.03 52.84,-69.55 25.22,-14.66 64.34,-18.99 117.67,-13.04 64.1,7 105.79,10.89 125.22,11.72 19.29,0.79 40.3,0.34 62.69,-1.15 6.27,-19.77 6.57,-34.78 1.02,-45.27 -5.73,-10.41 -18.71,-18.96 -39.29,-25.48 -26.23,-8.32 -47.37,-10.28 -63.07,-6.07 -12.3,3.34 -24.57,13.07 -36.6,29.1zm-230.8 -222.23l76.4 24.22 -37.22 117.43 -76.4 -24.22 -95.43 301.05 -160.88 -50.99 95.42 -301.05 -59.86 -18.98 37.22 -117.43 59.87 18.98 6.01 -18.97c5.42,-17.09 13.26,-35.32 23.37,-54.61 10.25,-19.26 22.44,-33.9 36.62,-43.62 14.23,-9.84 31.81,-15.82 52.54,-18.13 20.81,-2.13 48.85,2.31 84.1,13.48 28.11,8.91 67.85,25.06 119.42,48.67l-48.5 91.36c-18.2,-9.33 -33.2,-15.71 -45.04,-19.47 -14.4,-4.56 -25.52,-5.42 -33.38,-2.58 -7.86,2.84 -14.73,9.09 -20.74,18.74 -3.18,5.36 -7.6,17.43 -13.52,36.12zm-501.34 82.98c-24.57,0.94 -49.79,0.64 -75.52,-0.85 -35.28,-1.71 -58.72,0.33 -69.98,5.94 -11.79,5.88 -19.33,14.31 -22.83,25.34 -4.01,12.64 -2.82,24.27 3.38,35.11 6.36,10.75 18,18.88 35.08,24.29 17.88,5.67 35.79,6.62 53.99,2.91 18.11,-3.89 32.38,-11.05 42.75,-21.39 10.42,-10.46 18.68,-25.76 24.99,-45.66l8.14 -25.69zm-112.35 -128.44l-148.1 -64.7c14.27,-24.93 29.31,-43.41 45.06,-55.29 15.76,-11.88 35.58,-20.25 59.74,-25.03 17.27,-3.56 39.59,-3.45 66.68,0.26 27.1,3.7 55.67,10.24 85.67,19.75 48.03,15.22 85.91,30.19 113.26,44.79 27.49,14.63 48.25,33.65 62.2,56.87 9.97,16.19 15.45,36.27 16.52,60.45 0.89,24.26 -1.73,46.08 -8,65.86l-58.58 184.82c-6.23,19.64 -9.78,35.53 -10.9,47.47 -0.98,11.98 -0.13,27.94 2.85,47.98l-150.52 -47.72c-2.64,-12.68 -3.95,-22.12 -4.04,-28.36 -0.09,-6.25 0.97,-15.68 2.92,-28.38 -27.41,13.65 -52.96,21.39 -76.4,23.43 -32.06,2.58 -66.84,-2.08 -104.37,-13.98 -49.91,-15.81 -84.18,-39.41 -102.8,-70.78 -18.54,-31.19 -22.41,-63.79 -11.67,-97.69 10.11,-31.88 27.65,-55.03 52.84,-69.55 25.21,-14.66 64.34,-18.99 117.67,-13.04 64.1,7 105.79,10.89 125.22,11.72 19.29,0.78 40.3,0.34 62.69,-1.16 6.26,-19.77 6.57,-34.77 1.02,-45.26 -5.73,-10.41 -18.71,-18.96 -39.29,-25.49 -26.23,-8.31 -47.37,-10.27 -63.07,-6.07 -12.3,3.35 -24.57,13.08 -36.6,29.1zm-473.74 -299.23l150.12 47.59 -21.7 68.47c23.91,-24.99 45.32,-40.71 64.19,-47.01 18.88,-6.3 39.64,-5.94 62.23,1.22 23.68,7.51 47.16,23.09 70.63,46.66l-85.88 98.61c-16.32,-13.91 -30.14,-22.58 -41.18,-26.08 -20.98,-6.65 -40.03,-3.07 -57.06,10.49 -24.31,19.23 -47.13,62.33 -68.37,129.32l-44.47 140.3 -161.16 -51.09 132.65 -418.48zm-115.78 -211.96l-50.48 159.26 88.25 27.98 -37.1 117.03 -88.24 -27.97 -47.08 148.5c-5.66,17.89 -7.67,30.28 -6.14,37.13 2.44,10.54 10.13,18.02 23.31,22.19 11.84,3.76 29.49,5.5 52.92,5.39l-23.29 114.58c-42.42,-3.97 -80.78,-11.39 -115.21,-22.3 -39.95,-12.66 -67.79,-27.11 -83.38,-43.31 -15.73,-16.23 -24.77,-36.27 -27.18,-59.97 -2.53,-23.76 3.77,-59.07 18.61,-105.87l46.69 -147.3 -59.19 -18.76 37.1 -117.03 59.19 18.76 24.38 -76.94 186.84 -31.37zm7771.38 -11945.17l401.35 -68.25 16.49 96.97 -180.56 259.72 231.91 -39.43 19.25 113.23 -431.26 73.34 -18.29 -107.54 171.1 -247.23 -190.74 32.43 -19.25 -113.24zm-539.2 91.68l175.14 -29.78 138.3 272.92 33.78 -302.18 163.47 -27.8 -93.01 491.76c-10.52,56.04 -24.49,95.05 -41.81,116.89 -24.35,31.05 -65.95,51.57 -124.93,61.61 -23.94,4.07 -61.37,7 -112.56,8.98l-32.62 -113.55c25.09,3.61 52.44,2.82 81.79,-2.17 19.48,-3.31 34.58,-10.45 45.16,-21.42 10.57,-11.1 18.14,-28.85 22.56,-53.36l-255.27 -401.9zm-546.17 92.88l196.85 -33.48 89.36 108.92 59.35 -134.21 183.09 -31.12 -112.56 231.27 196.72 199.72 -193.66 32.92 -103.55 -125.8 -70.48 155.4 -179.73 30.57 118.8 -253.38 -184.19 -180.81zm2633.55 -1321.8l28.01 164.72 91.26 -15.52 20.57 121.03 -91.25 15.52 26.11 153.58c3.15,18.5 7.03,30.43 11.53,35.82 6.99,8.26 17.25,11.39 30.89,9.07 12.25,-2.08 28.73,-8.61 49.51,-19.43l31.73 112.53c-39.52,15.88 -77.02,26.85 -112.64,32.9 -41.31,7.03 -72.67,6.92 -93.96,-0.34 -21.41,-7.23 -38.62,-20.91 -51.6,-40.89 -13.13,-19.96 -23.68,-54.23 -31.92,-102.64l-25.9 -152.34 -61.21 10.41 -20.58 -121.03 61.21 -10.41 -13.53 -79.57 151.77 -113.41zm-386.75 418.45c-8.79,-31.56 -21.33,-53.05 -37.58,-64.46 -16.42,-11.52 -35.96,-15.35 -58.78,-11.47 -26.43,4.5 -45.63,18.64 -57.95,42.21 -7.79,14.77 -10.9,35.2 -9.15,61.52l163.46 -27.8zm182.12 50.77l-332.49 56.54c7.47,26.21 18.06,44.74 31.7,55.88 19.19,16.06 41.77,21.8 67.51,17.43 16.28,-2.77 31.17,-9.45 44.38,-20.15 8.17,-6.68 16.24,-17.36 24.31,-32.18l166.01 -12.78c-17.63,47.8 -42.38,84.08 -74.5,109 -32.14,24.79 -81.17,42.86 -147.25,54.11 -57.32,9.74 -103.76,9.33 -139.47,-1.2 -35.59,-10.55 -67.23,-31.66 -94.78,-63.18 -27.54,-31.53 -45.42,-71 -53.51,-118.58 -11.5,-67.6 0.89,-126.11 37.05,-175.19 36.28,-49.27 92.53,-80.44 168.9,-93.44 61.91,-10.52 112.48,-9.38 151.44,3.32 39.06,12.53 71.1,35.14 95.77,67.44 24.84,32.42 42.04,77.16 51.73,134.2l3.2 18.78zm-906.58 -110.79l155.25 -26.4 12.05 70.82c9.81,-33.17 21.66,-56.94 35.55,-71.18 13.9,-14.24 32.53,-23.42 55.89,-27.39 24.49,-4.17 52.49,-1.07 84.15,9.16l-31.22 126.98c-20.88,-4.9 -37.13,-6.28 -48.55,-4.34 -21.7,3.69 -37,15.59 -45.93,35.44 -12.82,28.22 -13.38,76.99 -1.61,146.26l24.68 145.1 -166.67 28.34 -73.59 -432.79zm-224.69 272.1c-21.42,12.08 -43.98,23.36 -67.54,33.81 -32.15,14.63 -52.06,27.17 -59.5,37.31 -7.78,10.63 -10.64,21.57 -8.7,32.98 2.23,13.07 8.61,22.87 19.07,29.67 10.58,6.65 24.65,8.55 42.32,5.55 18.48,-3.15 34.84,-10.5 49.33,-22.12 14.33,-11.75 23.73,-24.66 28.23,-38.6 4.46,-14.06 4.81,-31.45 1.31,-52.03l-4.52 -26.57zm-158.68 -62.76l-161.29 10.24c1.28,-28.69 6.19,-52.01 14.76,-69.78 8.57,-17.77 22.36,-34.29 41.67,-49.59 13.72,-11.07 33.61,-21.18 59.4,-30.28 25.79,-9.12 54.18,-16.38 85.2,-21.66 49.68,-8.44 90.21,-12.47 121.2,-12.02 31.14,0.43 58.3,7.84 81.34,22.09 16.27,9.84 30.34,25.19 42.35,46.2 11.9,21.16 19.55,41.76 23.03,62.21l32.51 191.14c3.45,20.31 7.57,36.08 12.04,47.2 4.6,11.1 12.66,24.9 24.48,41.35l-155.66 26.47c-8.15,-10.06 -13.64,-17.87 -16.58,-23.37 -2.94,-5.52 -6.31,-14.39 -10.39,-26.57 -18.12,24.68 -37.29,43.26 -57.2,55.81 -27.33,16.95 -60.39,28.73 -99.2,35.33 -51.61,8.78 -92.88,3.48 -123.79,-15.88 -30.76,-19.24 -49.13,-46.47 -55.09,-81.52 -5.61,-32.97 -0.61,-61.58 15.15,-86.02 15.71,-24.58 48.51,-46.34 98.65,-65.45 60.19,-23.12 99.04,-38.74 116.7,-46.89 17.51,-8.13 35.98,-18.15 55.21,-29.72 -3.47,-20.45 -10.08,-33.93 -19.81,-40.72 -9.86,-6.63 -25.32,-8.29 -46.6,-4.67 -27.13,4.61 -46.82,12.54 -58.85,23.47 -9.41,8.6 -15.87,22.87 -19.23,42.63zm-306.91 -91.96l79.01 -13.43 20.65 121.44 -79.01 13.43 52.94 311.35 -166.38 28.3 -52.95 -311.34 -61.91 10.52 -20.65 -121.45 61.92 -10.52 -3.34 -19.62c-3,-17.68 -4.38,-37.47 -4.22,-59.25 0.3,-21.82 4.44,-40.41 12.6,-55.54 8.15,-15.27 21.04,-28.63 38.41,-40.17 17.53,-11.42 44.5,-20.3 80.95,-26.51 29.07,-4.94 71.79,-8.77 128.45,-11.38l-1.31 103.43c-20.45,0.03 -36.7,1.22 -48.95,3.3 -14.89,2.54 -25.17,6.86 -30.86,12.98 -5.69,6.13 -8.94,14.83 -9.86,26.16 -0.38,6.22 1.22,18.97 4.51,38.3zm-407.77 303.24c-21.42,12.08 -43.98,23.35 -67.54,33.8 -32.15,14.63 -52.06,27.17 -59.5,37.31 -7.79,10.63 -10.64,21.58 -8.7,32.98 2.22,13.08 8.6,22.87 19.07,29.67 10.58,6.65 24.65,8.55 42.31,5.54 18.49,-3.14 34.85,-10.49 49.34,-22.12 14.32,-11.75 23.73,-24.64 28.22,-38.58 4.47,-14.07 4.81,-31.46 1.32,-52.04l-4.52 -26.56zm-158.68 -62.78l-161.29 10.26c1.28,-28.7 6.19,-52.01 14.76,-69.79 8.57,-17.77 22.36,-34.28 41.66,-49.59 13.72,-11.07 33.62,-21.19 59.4,-30.29 25.79,-9.11 54.19,-16.37 85.21,-21.65 49.67,-8.45 90.2,-12.48 121.2,-12.01 31.14,0.42 58.3,7.83 81.33,22.09 16.28,9.83 30.34,25.18 42.36,46.19 11.89,21.16 19.55,41.76 23.03,62.22l32.5 191.13c3.45,20.32 7.57,36.07 12.04,47.2 4.61,11.1 12.67,24.9 24.49,41.35l-155.67 26.47c-8.15,-10.07 -13.63,-17.86 -16.57,-23.37 -2.94,-5.52 -6.31,-14.38 -10.39,-26.57 -18.12,24.68 -37.3,43.26 -57.21,55.8 -27.32,16.97 -60.38,28.74 -99.19,35.34 -51.61,8.79 -92.88,3.49 -123.8,-15.88 -30.76,-19.25 -49.12,-46.46 -55.08,-81.52 -5.61,-32.97 -0.61,-61.58 15.14,-86.02 15.71,-24.57 48.52,-46.33 98.66,-65.45 60.19,-23.11 99.04,-38.74 116.7,-46.89 17.5,-8.14 35.98,-18.14 55.2,-29.73 -3.48,-20.44 -10.07,-33.92 -19.8,-40.7 -9.86,-6.64 -25.32,-8.3 -46.6,-4.68 -27.13,4.61 -46.82,12.54 -58.86,23.46 -9.4,8.61 -15.86,22.88 -19.22,42.63zm-558.16 -49.23l155.25 -26.39 12.05 70.81c9.82,-33.16 21.66,-56.94 35.55,-71.18 13.91,-14.24 32.53,-23.42 55.89,-27.39 24.49,-4.17 52.5,-1.06 84.15,9.15l-31.22 126.99c-20.88,-4.9 -37.13,-6.29 -48.55,-4.34 -21.7,3.69 -37,15.59 -45.93,35.44 -12.82,28.22 -13.38,76.99 -1.6,146.27l24.67 145.1 -166.67 28.33 -73.59 -432.79zm-199.96 -135.46l28.01 164.7 91.27 -15.51 20.58 121.03 -91.26 15.52 26.11 153.58c3.16,18.5 7.04,30.43 11.53,35.82 7,8.26 17.26,11.39 30.89,9.06 12.24,-2.07 28.73,-8.6 49.51,-19.42l31.74 112.53c-39.53,15.89 -77.04,26.85 -112.64,32.9 -41.32,7.03 -72.68,6.93 -93.96,-0.34 -21.41,-7.23 -38.62,-20.91 -51.61,-40.88 -13.13,-19.97 -23.69,-54.25 -31.91,-102.65l-25.91 -152.34 -61.21 10.41 -20.58 -121.03 61.22 -10.41 -13.54 -79.57 151.76 -113.4zm20013.79 -13850.9l393.79 103.27 -24.95 95.14 -271.57 162.19 227.55 59.68 -29.14 111.1 -423.15 -110.96 27.67 -105.52 257.8 -154.71 -187.15 -49.09 29.15 -111.1zm-529.05 -138.75l171.84 45.06 13.5 305.67 155.34 -261.39 160.4 42.06 -287.46 409.69c-32.69,46.72 -61.5,76.5 -86.28,89.26 -34.99,18.25 -81.35,19.8 -139.22,4.63 -23.49,-6.16 -58.8,-18.92 -106.25,-38.22l17.09 -116.9c21.37,13.64 46.61,24.19 75.41,31.74 19.11,5.02 35.81,4.74 49.97,-0.89 14.21,-5.76 28.42,-18.81 42.55,-39.32l-66.89 -471.39zm-535.89 -140.53l193.15 50.64 36.51 136.07 109.4 -97.8 179.64 47.12 -197.89 164.3 96.89 263.06 -190.01 -49.84 -42.48 -157.3 -128.27 112.52 -176.35 -46.24 212.68 -181.87 -93.27 -240.66zm2944.26 -118.62l-42.38 161.62 89.54 23.48 -31.15 118.74 -89.54 -23.47 -39.52 150.68c-4.76,18.16 -6.14,30.63 -4.26,37.39 2.96,10.41 11.02,17.49 24.4,21 12.02,3.15 29.73,4 53.12,2.71l-17.48 115.6c-42.55,-1.82 -81.24,-7.29 -116.19,-16.46 -40.53,-10.62 -69.06,-23.65 -85.46,-39.04 -16.53,-15.42 -26.57,-34.97 -30.16,-58.53 -3.73,-23.6 0.78,-59.17 13.23,-106.67l39.21 -149.47 -60.06 -15.75 31.14 -118.75 60.06 15.75 20.47 -78.07 185.03 -40.76zm-524.86 221.8c5,-32.37 2.44,-57.12 -7.67,-74.22 -10.21,-17.26 -26.43,-28.8 -48.82,-34.68 -25.93,-6.79 -49.26,-1.82 -70.2,14.57 -13.18,10.25 -24.44,27.58 -33.69,52.28l160.38 42.05zm145 121.34l-326.24 -85.56c-3.99,26.96 -1.98,48.21 5.85,63.98 10.86,22.55 29.07,37.08 54.32,43.71 15.98,4.19 32.3,4.24 48.74,-0.06 10.2,-2.72 21.95,-9.12 35.42,-19.3l156.51 56.79c-35.76,36.29 -73.27,59.14 -112.81,68.6 -39.5,9.34 -91.62,5.59 -156.46,-11.4 -56.24,-14.76 -98.38,-34.28 -126.57,-58.59 -28.08,-24.28 -48.2,-56.56 -60.31,-96.63 -12.09,-40.08 -12.11,-83.41 0.13,-130.1 17.39,-66.33 52.8,-114.53 105.98,-144.34 53.36,-29.93 117.46,-35.14 192.4,-15.5 60.74,15.94 106.34,37.82 136.6,65.45 30.42,27.52 50.29,61.33 59.45,100.93 9.27,39.77 6.5,87.62 -8.19,143.59l-4.82 18.43zm-780.3 -474.67l152.33 39.95 -18.21 69.49c22.61,-26.18 43.2,-42.95 61.73,-50.19 18.53,-7.25 39.29,-7.93 62.21,-1.92 24.03,6.3 48.26,20.66 72.89,43.04l-80.79 102.81c-17,-13.07 -31.24,-21.02 -42.44,-23.96 -21.3,-5.59 -40.14,-1.05 -56.46,13.35 -23.31,20.43 -43.93,64.63 -61.76,132.59l-37.33 142.37 -163.53 -42.88 111.36 -424.65zm-316.88 155.28c-24.49,2.18 -49.69,3.16 -75.47,2.96 -35.32,0.08 -58.63,3.3 -69.59,9.47 -11.47,6.48 -18.58,15.26 -21.52,26.46 -3.36,12.83 -1.58,24.39 5.14,34.89 6.9,10.42 18.94,17.95 36.27,22.5 18.14,4.75 36.07,4.8 54.07,0.19 17.89,-4.8 31.78,-12.69 41.63,-23.53 9.86,-10.97 17.34,-26.67 22.64,-46.87l6.83 -26.07zm-118.69 -122.59l-151.17 -57.16c12.99,-25.61 27.08,-44.83 42.21,-57.49 15.13,-12.66 34.51,-22.02 58.41,-28 17.06,-4.43 39.35,-5.44 66.6,-3.1 27.25,2.32 56.11,7.41 86.55,15.39 48.74,12.79 87.33,25.82 115.38,39.01 28.19,13.23 49.88,31.17 65,53.65 10.77,15.68 17.26,35.46 19.54,59.55 2.12,24.19 0.6,46.11 -4.66,66.18l-49.18 187.54c-5.23,19.93 -7.98,35.99 -8.49,47.97 -0.38,12.01 1.27,27.9 5.26,47.76l-152.73 -40.05c-3.28,-12.53 -5.06,-21.9 -5.47,-28.13 -0.41,-6.24 0.18,-15.71 1.48,-28.49 -26.68,15.02 -51.8,24.04 -75.12,27.27 -31.88,4.18 -66.86,1.28 -104.94,-8.71 -50.64,-13.27 -86.05,-35.11 -106.24,-65.49 -20.09,-30.21 -25.6,-62.59 -16.58,-96.98 8.48,-32.36 24.83,-56.36 49.26,-72.13 24.45,-15.92 63.3,-22.22 116.86,-18.96 64.37,3.74 106.2,5.53 125.65,5.38 19.31,-0.19 40.27,-1.7 62.56,-4.31 5.26,-20.07 4.8,-35.07 -1.27,-45.27 -6.25,-10.1 -19.65,-17.99 -40.53,-23.46 -26.62,-6.99 -47.82,-7.88 -63.29,-2.88 -12.12,3.95 -23.89,14.29 -35.09,30.91zm-241.71 -210.3l77.52 20.33 -31.25 119.16 -77.52 -20.34 -80.12 305.49 -163.25 -42.8 80.1 -305.49 -60.74 -15.93 31.25 -119.17 60.76 15.94 5.04 -19.25c4.56,-17.34 11.46,-35.94 20.58,-55.72 9.27,-19.75 20.7,-34.98 34.38,-45.41 13.72,-10.55 30.97,-17.41 51.55,-20.76 20.68,-3.18 48.91,-0.15 84.68,9.22 28.52,7.48 69.02,21.6 121.72,42.58l-43.83 93.69c-18.65,-8.4 -33.94,-14.01 -45.96,-17.17 -14.61,-3.82 -25.76,-4.12 -33.47,-0.89 -7.71,3.24 -14.25,9.82 -19.76,19.77 -2.91,5.51 -6.71,17.78 -11.68,36.75zm-496.52 108.18c-24.49,2.17 -49.69,3.14 -75.47,2.95 -35.32,0.08 -58.63,3.29 -69.59,9.46 -11.48,6.48 -18.59,15.28 -21.52,26.46 -3.37,12.84 -1.59,24.39 5.14,34.9 6.9,10.42 18.94,17.95 36.27,22.49 18.14,4.76 36.07,4.81 54.07,0.18 17.89,-4.8 31.78,-12.66 41.61,-23.51 9.88,-10.98 17.36,-26.68 22.66,-46.87l6.83 -26.06zm-118.69 -122.61l-151.18 -57.15c13,-25.62 27.08,-44.83 42.22,-57.49 15.13,-12.66 34.5,-22.02 58.4,-28.01 17.06,-4.43 39.36,-5.45 66.6,-3.11 27.26,2.33 56.12,7.42 86.56,15.4 48.74,12.78 87.33,25.81 115.38,39.02 28.19,13.22 49.88,31.17 64.99,53.65 10.78,15.67 17.26,35.45 19.55,59.55 2.11,24.18 0.6,46.1 -4.67,66.18l-49.18 187.53c-5.23,19.94 -7.97,35.99 -8.49,47.97 -0.37,12.01 1.28,27.91 5.27,47.77l-152.74 -40.06c-3.27,-12.53 -5.06,-21.89 -5.46,-28.12 -0.41,-6.24 0.18,-15.7 1.48,-28.49 -26.68,15.01 -51.81,24.03 -75.12,27.25 -31.89,4.2 -66.86,1.3 -104.94,-8.69 -50.64,-13.27 -86.06,-35.11 -106.24,-65.5 -20.09,-30.22 -25.6,-62.58 -16.58,-96.98 8.48,-32.35 24.83,-56.36 49.25,-72.13 24.44,-15.91 63.31,-22.21 116.87,-18.96 64.37,3.76 106.2,5.53 125.65,5.39 19.3,-0.2 40.26,-1.7 62.55,-4.33 5.26,-20.06 4.81,-35.06 -1.26,-45.25 -6.25,-10.11 -19.65,-18 -40.53,-23.47 -26.62,-6.98 -47.82,-7.88 -63.29,-2.89 -12.12,3.97 -23.89,14.31 -35.09,30.92zm-488.23 -274.95l152.32 39.96 -18.21 69.48c22.62,-26.17 43.21,-42.95 61.73,-50.2 18.54,-7.24 39.29,-7.93 62.21,-1.91 24.03,6.29 48.27,20.67 72.9,43.02l-80.8 102.83c-17,-13.07 -31.23,-21.04 -42.44,-23.97 -21.29,-5.58 -40.14,-1.05 -56.45,13.36 -23.32,20.42 -43.93,64.63 -61.76,132.6l-37.34 142.37 -163.53 -42.9 111.37 -424.64zm-126.34 -205.84l-42.38 161.6 89.55 23.49 -31.14 118.75 -89.54 -23.48 -39.53 150.69c-4.74,18.16 -6.13,30.62 -4.26,37.39 2.97,10.41 11.03,17.49 24.41,20.98 12.01,3.16 29.72,4.01 53.11,2.72l-17.47 115.61c-42.56,-1.82 -81.26,-7.3 -116.18,-16.46 -40.55,-10.63 -69.08,-23.65 -85.47,-39.04 -16.52,-15.42 -26.56,-34.97 -30.17,-58.52 -3.73,-23.61 0.78,-59.2 13.25,-106.68l39.19 -149.48 -60.06 -15.74 31.14 -118.76 60.07 15.76 20.47 -78.08 185.01 -40.75zm-20955.47 -2496.28l-255.73 -316.76 76.52 -61.78 314.84 30.55 -147.77 -183.04 89.37 -72.15 274.8 340.36 -84.86 68.53 -299.32 -28.4 121.53 150.55 -89.38 72.14zm343.57 425.57l-111.61 -138.23 170.49 -254.06 -280.13 118.25 -104.16 -129.01 474.46 -159.27c54.03,-18.21 94.89,-25.09 122.41,-20.66 39,6.06 77.23,32.32 114.81,78.87 15.26,18.89 36.12,50.11 62.87,93.8l-83.12 83.96c-9.11,-23.65 -23.16,-47.12 -41.87,-70.28 -12.4,-15.38 -26.01,-25.07 -40.75,-28.93 -14.86,-3.8 -34.05,-1.72 -57.59,6.4l-225.81 419.16zm348.01 431.06l-125.45 -155.37 51.34 -131.19 -146.08 13.83 -116.66 -144.52 256.78 -14.85 78.08 -269.24 123.38 152.85 -59.12 151.83 170.01 -14.48 114.52 141.84 -279.1 20.23 -67.7 249.07zm-2440.5 -1651.29l130.01 -104.95 -58.15 -72.03 95.53 -77.1 58.14 72.01 121.21 -97.85c14.61,-11.8 23.13,-21.01 25.62,-27.57 3.79,-10.14 1.5,-20.62 -7.19,-31.38 -7.8,-9.67 -21.55,-20.86 -41.15,-33.71l82.65 -82.68c33.17,26.72 61.08,54.07 83.78,82.18 26.31,32.6 41.55,60.02 45.63,82.14 4.16,22.22 0.64,43.91 -10.45,65.01 -10.99,21.21 -35.72,47.17 -73.94,78.02l-120.24 97.05 39.01 48.32 -95.53 77.12 -39 -48.32 -62.79 50.71 -173.14 -76.97zm554.1 132.85c-23.22,23.09 -35.85,44.52 -37.85,64.29 -2.01,19.95 4.19,38.86 18.73,56.88 16.84,20.85 38.56,30.69 65.15,29.92 16.69,-0.44 36.03,-7.7 58.13,-22.1l-104.16 -128.99zm-44.73 -183.71l211.86 262.43c19.21,-19.33 30.19,-37.63 33.25,-54.98 4.64,-24.6 -1.4,-47.09 -17.8,-67.4 -10.38,-12.86 -23.49,-22.59 -39.26,-28.88 -9.84,-3.86 -23.08,-5.68 -39.98,-5.47l-92.29 -138.58c50.32,-8 94.07,-4.14 131.52,11.7 37.34,15.93 77.06,49.86 119.18,102.01 36.52,45.24 58.86,85.96 67.12,122.26 8.21,36.21 5.25,74.13 -8.78,113.56 -14.04,39.43 -39.72,74.33 -77.28,104.65 -53.35,43.08 -110.46,60.88 -170.95,53.32 -60.7,-7.56 -115.41,-41.4 -164.07,-101.67 -39.45,-48.86 -63.18,-93.53 -71.14,-133.73 -8.16,-40.19 -4.09,-79.2 12.03,-116.52 16.13,-37.51 46.74,-74.39 91.78,-110.72l14.81 -11.98zm346.53 845.05l-98.92 -122.54 55.88 -45.13c-33.73,7.65 -60.25,8.94 -79.47,3.77 -19.21,-5.16 -36.34,-16.93 -51.22,-35.36 -15.6,-19.33 -26.59,-45.26 -33.14,-77.89l126.03 -34.84c5.94,20.61 12.68,35.46 19.95,44.48 13.82,17.13 31.69,24.66 53.37,22.74 30.89,-2.62 73.7,-25.95 128.38,-70.09l114.52 -92.45 106.2 131.53 -341.58 275.78zm347.21 62.99c21,12.78 41.87,26.93 62.51,42.39 28.48,20.89 49.16,32.13 61.64,33.67 13.07,1.59 24.01,-1.27 33.02,-8.54 10.31,-8.33 15.74,-18.69 16.56,-31.13 0.63,-12.48 -4.6,-25.69 -15.84,-39.63 -11.8,-14.59 -26.2,-25.26 -43.42,-32.23 -17.26,-6.75 -33.11,-8.64 -47.48,-5.76 -14.44,2.98 -29.77,11.18 -46.02,24.29l-20.97 16.94zm22.81 169.1l87.78 135.7c-25.65,12.91 -48.4,20.02 -68.09,21.24 -19.68,1.21 -40.83,-2.75 -63.63,-12.11 -16.35,-6.56 -34.89,-18.97 -55.45,-37.03 -20.56,-18.03 -40.77,-39.25 -60.55,-63.73 -31.64,-39.21 -54.98,-72.6 -69.72,-99.85 -14.85,-27.37 -21.66,-54.69 -20.5,-81.76 0.63,-19 7.14,-38.77 19.6,-59.53 12.65,-20.72 26.87,-37.47 43.01,-50.51l150.85 -121.79c16.04,-12.94 27.78,-24.24 35.3,-33.58 7.43,-9.44 15.53,-23.21 24.1,-41.56l99.19 122.85c-4.79,12.03 -8.92,20.63 -12.29,25.88 -3.37,5.28 -9.47,12.55 -18.1,22.07 30.4,3.73 55.97,11.38 76.66,22.61 28.14,15.55 54.58,38.64 79.31,69.27 32.89,40.72 48.44,79.32 46.66,115.76 -1.74,36.22 -16.52,65.56 -44.19,87.9 -26.01,21.01 -53.42,30.63 -82.45,28.83 -29.12,-1.68 -64.12,-19.67 -105.31,-54.06 -49.59,-41.21 -82.21,-67.47 -97.96,-78.88 -15.65,-11.31 -33.42,-22.52 -52.92,-33.64 -16.13,13.02 -24.66,25.38 -25.83,37.19 -0.96,11.84 5.15,26.14 18.71,42.93 17.28,21.42 33.82,34.71 49.23,39.87 12.1,4 27.71,2.66 46.59,-4.07zm69.82 312.7l-50.36 -62.36 95.86 -77.38 50.33 62.36 245.74 -198.38 106.03 131.3 -245.72 198.4 39.44 48.86 -95.86 77.4 -39.45 -48.9 -15.48 12.51c-13.96,11.25 -30.55,22.13 -49.62,32.65 -19.18,10.4 -37.42,15.88 -54.63,16.16 -17.3,0.35 -35.25,-4.36 -53.8,-13.87 -18.54,-9.71 -39.46,-28.9 -62.7,-57.67 -18.52,-22.94 -42.75,-58.33 -72.73,-106.49l90.88 -49.41c10.02,17.83 19.01,31.41 26.81,41.09 9.49,11.74 18.28,18.6 26.41,20.58 8.13,1.96 17.3,0.53 27.64,-4.2 5.61,-2.71 15.95,-10.33 31.21,-22.65zm463.87 207.48c21,12.79 41.86,26.95 62.5,42.41 28.48,20.89 49.16,32.14 61.64,33.67 13.08,1.59 24.03,-1.27 33.01,-8.53 10.34,-8.35 15.76,-18.69 16.57,-31.14 0.63,-12.49 -4.6,-25.7 -15.85,-39.63 -11.78,-14.6 -26.18,-25.27 -43.42,-32.22 -17.25,-6.75 -33.1,-8.67 -47.44,-5.77 -14.48,2.98 -29.8,11.18 -46.05,24.29l-20.96 16.92zm22.8 169.12l87.81 135.7c-25.68,12.91 -48.41,20.02 -68.11,21.23 -19.69,1.22 -40.84,-2.74 -63.63,-12.1 -16.36,-6.55 -34.91,-18.96 -55.46,-37.01 -20.57,-18.04 -40.77,-39.27 -60.55,-63.75 -31.64,-39.2 -54.98,-72.58 -69.72,-99.86 -14.85,-27.37 -21.66,-54.68 -20.48,-81.75 0.61,-19 7.13,-38.77 19.58,-59.53 12.66,-20.72 26.87,-37.46 43.03,-50.51l150.85 -121.79c16.03,-12.93 27.76,-24.24 35.29,-33.57 7.42,-9.45 15.53,-23.22 24.1,-41.58l99.18 122.87c-4.8,12.03 -8.9,20.63 -12.29,25.87 -3.37,5.27 -9.46,12.53 -18.09,22.06 30.38,3.75 55.96,11.39 76.64,22.63 28.16,15.54 54.59,38.61 79.33,69.26 32.88,40.72 48.43,79.31 46.66,115.75 -1.76,36.24 -16.53,65.57 -44.19,87.91 -26.02,21 -53.43,30.63 -82.44,28.85 -29.12,-1.71 -64.14,-19.69 -105.34,-54.08 -49.58,-41.22 -82.21,-67.46 -97.94,-78.89 -15.65,-11.28 -33.42,-22.51 -52.92,-33.62 -16.14,13.02 -24.67,25.37 -25.83,37.17 -0.97,11.84 5.13,26.15 18.7,42.94 17.29,21.42 33.82,34.71 49.23,39.88 12.11,3.98 27.72,2.65 46.59,-4.08zm229.9 511l-98.91 -122.54 55.88 -45.13c-33.74,7.65 -60.26,8.94 -79.48,3.79 -19.21,-5.17 -36.33,-16.93 -51.21,-35.37 -15.61,-19.32 -26.59,-45.28 -33.15,-77.87l126.05 -34.85c5.93,20.61 12.65,35.47 19.93,44.48 13.84,17.11 31.69,24.65 53.38,22.72 30.89,-2.6 73.71,-25.95 128.39,-70.09l114.52 -92.47 106.18 131.56 -341.58 275.77zm-20.41 240.65l129.98 -104.94 -58.14 -72.05 95.52 -77.12 58.14 72.04 121.23 -97.86c14.59,-11.81 23.1,-21.01 25.61,-27.57 3.78,-10.14 1.5,-20.63 -7.21,-31.37 -7.8,-9.67 -21.53,-20.86 -41.14,-33.7l82.66 -82.7c33.18,26.72 61.08,54.08 83.75,82.18 26.34,32.61 41.58,60.02 45.64,82.13 4.16,22.22 0.65,43.91 -10.42,65.01 -11.01,21.22 -35.76,47.2 -73.96,78.01l-120.24 97.09 39.01 48.29 -95.52 77.13 -39 -48.32 -62.81 50.71 -173.1 -76.96z"/>
 </g>
</svg>
