<?xml version="1.0" encoding="UTF-8"?>
<!DOCTYPE svg PUBLIC "-//W3C//DTD SVG 1.1//EN" "http://www.w3.org/Graphics/SVG/1.1/DTD/svg11.dtd">
<!-- Creator: CorelDRAW -->
<svg xmlns="http://www.w3.org/2000/svg" xml:space="preserve" width="60mm" height="60mm" version="1.1" style="shape-rendering:geometricPrecision; text-rendering:geometricPrecision; image-rendering:optimizeQuality; fill-rule:evenodd; clip-rule:evenodd"
viewBox="0 0 6000 6000"
 xmlns:xlink="http://www.w3.org/1999/xlink"
 xmlns:xodm="http://www.corel.com/coreldraw/odm/2003">
 <defs>
  <style type="text/css">
   <![CDATA[
    .str0 {stroke:#2B2B2A;stroke-width:20;stroke-miterlimit:22.9256}
    .fil0 {fill:#2B2B2A}
    .fil1 {fill:white;fill-rule:nonzero}
    .fil2 {fill:#DADADB;fill-rule:nonzero}
   ]]>
  </style>
 </defs>
 <g id="s">
  <metadata id="CorelCorpID_0Corel-Layer"/>
  <g id="_105553171465536">
   <polygon class="fil0 str0" points="4348.63,354.27 5653.28,1666.24 1640.03,5657.07 335.38,4345.1 "/>
   <polygon class="fil0 str0" points="1640.03,354.27 335.38,1666.24 4348.63,5657.07 5653.28,4345.1 "/>
   <path class="fil1" d="M4039.53 4457.08c64.01,15.17 210.13,40.69 436.68,81.47 155.97,25.6 292.22,51.04 403.84,74.72 0,0 277.73,-274.45 277.73,-274.45 0,0 -952.42,-963.77 -952.42,-963.77 -54.63,67.03 -155.51,173.29 -300.97,317.03 32.66,29.78 93.13,87.65 184.69,170.38 132.4,120.74 236.98,219.96 312.15,292.71 -52.52,-10.15 -118.2,-20.42 -198.65,-32.38 -149.42,-25.54 -270.89,-45.98 -362.83,-62.95 -91.93,-16.99 -175.63,-35.57 -249.46,-57.36 0,0 -277.72,274.45 -277.72,274.45 0,0 942.61,953.85 942.61,953.85 138.86,-137.23 242.95,-230.28 308.96,-279.2 -52.29,-49.63 -133.98,-128.98 -248.4,-234.84 -93.18,-84.37 -184.69,-170.37 -276.21,-259.66z"/>
   <path class="fil1" d="M1480.29 4470.03c64,15.17 210.13,40.69 436.68,81.47 155.97,25.6 292.22,51.04 403.84,74.72 0,0 277.72,-274.45 277.72,-274.45 0,0 -952.41,-963.77 -952.41,-963.77 -54.63,67.03 -155.51,173.29 -300.97,317.04 32.66,29.77 93.13,87.64 184.69,170.37 132.4,120.74 236.98,219.97 312.15,292.72 -52.52,-10.15 -118.21,-20.42 -198.65,-32.39 -149.43,-25.54 -270.89,-45.98 -362.84,-62.95 -91.92,-16.98 -175.63,-35.57 -249.45,-57.36 0,0 -277.72,274.45 -277.72,274.45 0,0 942.61,953.85 942.61,953.85 138.86,-137.22 242.94,-230.28 308.96,-279.19 -52.29,-49.63 -133.99,-128.98 -248.4,-234.85 -93.18,-84.36 -184.69,-170.37 -276.21,-259.66z"/>
   <path class="fil1" d="M2706.48 1858.29c0,0 -403.51,-408.32 -403.51,-408.32 -52.68,16.13 -134.98,35.36 -250.14,57.7 0,0 -116.81,23.94 -116.81,23.94 0,0 28.74,-136.23 28.74,-136.23 20.36,-108.35 38.91,-185.49 55.6,-231.4 0,0 -403.51,-408.32 -403.51,-408.32 0,0 -109.72,768.47 -109.72,768.47 0,0 -805.94,110.27 -805.94,110.27 0,0 405.13,409.97 405.13,409.97 34.58,-11.29 77.38,-20.9 126.74,-30.46 47.72,-11.23 98.72,-19.14 151.36,-28.71 21.4,-4.78 41.14,-7.96 60.86,-11.13 19.76,-3.16 36.2,-6.36 52.65,-9.55 0,0 -16.98,91.93 -16.98,91.93 -25.46,136.27 -49.04,234.71 -69.14,297.06 0,0 405.16,409.98 405.16,409.98 0,0 119.79,-804.59 119.79,-804.59 0,0 769.72,-100.61 769.72,-100.61z"/>
   <path class="fil1" d="M5275.92 1842.6c0,0 -403.52,-408.32 -403.52,-408.32 -52.68,16.12 -134.97,35.36 -250.13,57.7 0,0 -116.82,23.94 -116.82,23.94 0,0 28.74,-136.23 28.74,-136.23 20.36,-108.35 38.91,-185.49 55.6,-231.4 0,0 -403.51,-408.32 -403.51,-408.32 0,0 -109.72,768.47 -109.72,768.47 0,0 -805.94,110.27 -805.94,110.27 0,0 405.13,409.97 405.13,409.97 34.58,-11.29 77.38,-20.9 126.74,-30.46 47.72,-11.23 98.72,-19.14 151.36,-28.71 21.4,-4.78 41.14,-7.97 60.86,-11.13 19.76,-3.16 36.2,-6.36 52.66,-9.55 0,0 -16.99,91.93 -16.99,91.93 -25.46,136.26 -49.04,234.71 -69.13,297.05 0,0 405.15,409.99 405.15,409.99 0,0 119.8,-804.6 119.8,-804.6 0,0 769.72,-100.6 769.72,-100.6z"/>
   <polygon class="fil2" points="4060.08,3107.24 3638.16,2680.29 3364.73,2743.36 3237.04,2769.53 3268.46,2620.62 3329.24,2367.68 2907.29,1940.7 2721.57,2871.92 2302.16,3301.74 2694.48,3698.73 3128.67,3272.52 "/>
  </g>
 </g>
</svg>
