<?xml version="1.0" encoding="UTF-8"?>
<!DOCTYPE svg PUBLIC "-//W3C//DTD SVG 1.1//EN" "http://www.w3.org/Graphics/SVG/1.1/DTD/svg11.dtd">
<!-- Creator: CorelDRAW -->
<svg xmlns="http://www.w3.org/2000/svg" xml:space="preserve" width="40mm" height="40mm" version="1.1" style="shape-rendering:geometricPrecision; text-rendering:geometricPrecision; image-rendering:optimizeQuality; fill-rule:evenodd; clip-rule:evenodd"
viewBox="0 0 4000 4000"
 xmlns:xlink="http://www.w3.org/1999/xlink"
 xmlns:xodm="http://www.corel.com/coreldraw/odm/2003">
 <defs>
  <style type="text/css">
   <![CDATA[
    .fil0 {fill:white}
    .fil1 {fill:#2B2B2A;fill-rule:nonzero}
   ]]>
  </style>
 </defs>
 <g id="s">
  <metadata id="CorelCorpID_0Corel-Layer"/>
  <path class="fil0" d="M1867.07 88.34c1059.43,-69.77 1974.83,732.51 2044.59,1791.93 69.77,1059.43 -732.51,1974.83 -1791.93,2044.59 -1059.43,69.77 -1974.83,-732.51 -2044.59,-1791.93 -69.77,-1059.43 732.51,-1974.83 1791.93,-2044.59z"/>
  <path class="fil1" d="M782.19 803.08c16.18,27.19 37.52,66.07 64.08,117.39 2.93,5.45 11.34,21.46 25.19,47.28 13.89,26.56 27.26,50.54 40.5,72.25 -33.07,-14.58 -73.74,-31 -121.21,-48.52 -53.63,-20.16 -96.98,-37.53 -129.7,-52.53 0,0 -97.9,109.8 -97.9,109.8 49.68,16.66 81,26.85 92.46,30.68 69.54,23.01 126.06,41.5 169.67,57 43.62,15.5 86.58,32.51 128.86,51.08 0,0 105.3,-118.1 105.3,-118.1 -23.32,-40.64 -45.19,-82.11 -65.55,-123.67 -20.39,-41.56 -47.24,-98.11 -80.12,-168.56 0,0 -37.2,-79.95 -37.2,-79.95 0,0 -94.38,105.85 -94.38,105.85zm824.97 -88.36c0,0 -312.32,-268.92 -312.32,-268.92 0,0 -171.87,91.54 -171.87,91.54 0,0 49.84,408.74 49.84,408.74 0,0 117.23,-62.44 117.23,-62.44 0,0 -12.22,-79.23 -12.22,-79.23 0,0 148.98,-79.36 148.98,-79.36 23.99,21.39 43.87,39.59 59.4,54.1 0,0 120.96,-64.43 120.96,-64.43zm-341.54 2.66c-9.57,-68.65 -15.87,-119.86 -20.3,-154.07 0,0 27.37,24.38 27.37,24.38 30.04,25.97 59.58,52.21 88.68,78.69 0,0 -95.75,51 -95.75,51zm373.17 -55.36c33.31,14.18 70.6,24.37 111.82,30.03 41.27,6.21 81.16,7.74 120.23,5.07 72.85,-4.95 126.48,-19.74 160.9,-43.83 34.43,-24.1 49.97,-60.7 46.63,-109.8 -2.41,-35.36 -21.07,-60.08 -56.04,-75.21 -34.95,-14.59 -89.91,-19.33 -164.35,-14.26 -30.09,2.04 -53.49,1 -69.7,-3.2 -16.68,-3.65 -25.07,-9.97 -25.64,-18.41 -0.58,-8.45 4.79,-15.18 16.08,-20.72 11.33,-5.03 33.89,-8.68 67.15,-10.94 27.98,-1.91 59.98,0.68 97.05,7.71 37.12,7.55 64.87,17.85 83.79,30.88 1.34,-3.8 2.56,-9.18 4.21,-16.2 8.81,-34 17.96,-63.27 26.42,-87.18 -32.27,-14.25 -67.45,-24.58 -106.64,-31.45 -39.15,-6.36 -77.49,-8.52 -113.91,-6.04 -62.83,4.28 -113.29,18.85 -151.34,44.26 -38.04,25.39 -55.21,61.57 -51.98,109.08 2.27,33.26 20.3,56.44 53.52,69.02 33.24,13.12 86,16.95 157.81,12.06 65.47,-4.46 98.92,3.87 100.39,25.52 0.4,5.8 -5.01,12 -16.84,17.59 -11.78,6.1 -32.19,10.14 -61.23,12.12 -28.5,1.94 -59.41,-0.19 -93.21,-5.85 -33.8,-5.66 -63.64,-15.29 -89.42,-27.86 -5.98,21.1 -12.15,39.55 -19.03,55.4 -6.88,15.86 -15.75,33.43 -26.67,52.21zm893.8 -278.31c0,0 -34.05,139.86 -34.05,139.86 0,0 -189.21,-46.07 -189.21,-46.07 0,0 34.05,-139.85 34.05,-139.85 0,0 -120.82,-29.42 -120.82,-29.42 -13.59,66.96 -27.18,129.55 -41.33,187.64 -14.15,58.11 -30.84,119.94 -49.55,185.64 0,0 120.82,29.41 120.82,29.41 0,0 34.05,-139.85 34.05,-139.85 0,0 189.21,46.08 189.21,46.08 0,0 -34.04,139.84 -34.04,139.84 0,0 120.82,29.41 120.82,29.41 11.57,-58.72 25.69,-121.19 41.84,-187.51 16.14,-66.32 32.33,-128.28 49.04,-185.76 0,0 -120.83,-29.42 -120.83,-29.42zm575.3 333.47c-17.68,8.01 -49.93,21.1 -96.73,39.29 -39.91,15.67 -72.89,28.83 -98.83,40.97 4.25,-19.18 11.29,-53.25 20.41,-101.44 8.77,-47.77 15.67,-83.34 21.42,-106.79 0,0 -113.89,-94.79 -113.89,-94.79 -3.7,25.14 -7.28,60.03 -11.79,105.15 -6.67,58.49 -11.53,104.03 -16.05,136.74 -4.53,32.73 -10.34,63.7 -17.09,92.5 0,0 -62.97,75.65 -62.97,75.65 0,0 106.15,88.35 106.15,88.35 0,0 57.21,-68.73 57.21,-68.73 37.87,-17.37 82.11,-34.93 131.62,-52.24 49.51,-17.31 107.16,-36.1 173.61,-57.22 0,0 17.56,-5.35 17.56,-5.35 0,0 -110.63,-92.09 -110.63,-92.09z"/>
  <path class="fil1" d="M871.56 2740.52c0,0 0.43,-0.31 0.43,-0.31 0,0 -77.63,-104.49 -77.63,-104.49 -53.22,42.83 -103.68,82.29 -151.67,117.95 -48,35.66 -100.35,72.57 -156.71,111.17 0,0 77.63,104.48 77.63,104.48 0,0 74.75,-55.54 74.75,-55.54 0,0 65.65,88.36 65.65,88.36 28.71,38.65 56.53,65.45 82.72,80.28 26.19,14.82 51.14,20.01 75.18,15.99 24.04,-4.02 48.01,-15.23 73.07,-33.84 36.11,-26.83 56.37,-59.02 59.92,-95.95 3.55,-36.92 -15.72,-83.25 -57.69,-139.75 0,0 -65.65,-88.35 -65.65,-88.35zm-151.21 112.35c0,0 67.11,-49.86 67.11,-49.86 0,0 43.55,58.62 43.55,58.62 17.99,24.21 30.39,42.69 37.53,55.83 6.82,12.73 9.85,23.01 8.66,31.16 -1.53,7.73 -7.17,15.21 -16.51,22.15 -9.35,6.94 -18.15,10.19 -26.29,8.98 -8.14,-1.19 -17.86,-7.17 -28.08,-17.38 -10.96,-10.3 -25.06,-27.51 -42.42,-50.87 0,0 -43.55,-58.63 -43.55,-58.63zm322.86 596.04c67.39,46.76 126.48,66.5 177.26,59.22 50.77,-7.28 94.48,-36.85 130.97,-89.45 35.9,-51.74 48,-102.61 37.35,-153.15 -11.1,-50.85 -50.27,-99.29 -117.22,-145.74 -66.53,-46.16 -125.6,-65.9 -176.69,-58.18 -51.51,7.4 -94.92,36.55 -130.82,88.29 -36.2,52.17 -48.59,103.46 -37.2,153.87 11.09,50.86 49.83,98.98 116.35,145.14zm61.54 -88.69c-31.74,-22.02 -50.56,-44.1 -56.16,-66.66 -5.6,-22.56 0.72,-46.52 18.51,-72.17 17.8,-25.65 37.74,-39.52 60.83,-42.18 23.09,-2.65 50.36,7.25 82.09,29.27 32.18,22.33 50.99,44.4 56.6,66.95 5.6,22.57 -0.43,46.1 -18.22,71.74 -18.1,26.09 -38.32,40.4 -61.12,42.61 -23.1,2.65 -50.36,-7.25 -82.53,-29.56zm710.3 371.35c-17.58,-34.91 -37.07,-75.7 -57.98,-122.23 -21.43,-46.65 -39.94,-89.37 -56.57,-128.44 0,0 199.09,-124.09 199.09,-124.09 0,0 -167.19,-37.96 -167.19,-37.96 -35.5,32.1 -91.88,72.48 -169.53,120.51 0,0 34.33,-151.2 34.33,-151.2 0,0 -128.49,-29.18 -128.49,-29.18 -12.54,67.16 -25.17,129.96 -38.41,188.27 -13.24,58.31 -28.96,120.4 -46.65,186.37 0,0 128.49,29.18 128.49,29.18 0,0 16.87,-74.3 16.87,-74.3 0,0 73.96,-46.16 73.96,-46.16 23.96,68.93 40.73,119.4 50.05,152.45 0,0 162.03,36.78 162.03,36.78zm446.99 -204.59c1.39,16.35 1.5,30.15 -0.23,40.92 -1.74,10.76 -9.38,20.98 -22.89,30.63 -13.48,10.18 -35.26,16.28 -65.3,18.84 -27.96,2.37 -48.36,-0.13 -61.2,-7.54 -13.37,-7.36 -21.52,-15.69 -24.47,-25.53 -3.45,-9.27 -5.59,-21.83 -6.89,-37.12 0,0 -17.47,-205.12 -17.47,-205.12 0,0 -130.75,11.14 -130.75,11.14 0,0 18.18,213.55 18.18,213.55 3.92,52.25 22.27,93.16 55.59,122.73 33.33,29.55 91.66,41.04 174.44,34 81.72,-6.97 138.82,-28.81 170.74,-65.53 31.4,-36.66 45.69,-80.9 41.81,-132.62 0,0 -17.86,-209.84 -17.86,-209.84 0,0 -130.77,11.13 -130.77,11.13 0,0 17.07,200.36 17.07,200.36zm244.67 -282.45c0,0 -0.23,-0.48 -0.23,-0.48 0,0 -117.83,55.32 -117.83,55.32 31.41,60.67 60.07,117.96 85.48,172.08 25.41,54.13 51.18,112.77 77.8,175.67 0,0 117.83,-55.32 117.83,-55.32 0,0 -39.58,-84.3 -39.58,-84.3 0,0 99.63,-46.78 99.63,-46.78 43.59,-20.47 75.38,-42.4 95.12,-65.12 19.73,-22.71 29.78,-46.14 30.61,-70.5 0.85,-24.36 -5.38,-50.08 -18.64,-78.34 -19.12,-40.72 -46.66,-66.97 -82.13,-77.78 -35.48,-10.82 -84.72,-1.14 -148.42,28.77 0,0 -99.64,46.78 -99.64,46.78zm80.06 170.52c0,0 -35.53,-75.68 -35.53,-75.68 0,0 66.11,-31.04 66.11,-31.04 27.29,-12.82 47.87,-21.3 62.17,-25.69 13.84,-4.15 24.51,-5.07 32.26,-2.28 7.27,3.03 13.47,10.04 18.43,20.58 4.94,10.54 6.37,19.8 3.58,27.54 -2.79,7.75 -10.58,16.08 -22.61,24.07 -12.29,8.69 -31.96,19.1 -58.3,31.47 0,0 -66.11,31.03 -66.11,31.03zm787.39 -353.38c-38.9,-3.81 -83.79,-9.15 -134.29,-16.35 -50.88,-6.83 -96.88,-14.04 -138.78,-20.86 0,0 1.58,-234.6 1.58,-234.6 0,0 -121.47,120.99 -121.47,120.99 8.14,47.16 12.12,116.39 11.19,207.7 0,0 -109.42,-109.86 -109.42,-109.86 0,0 -93.35,92.99 -93.35,92.99 50.04,46.5 96.36,90.75 138.56,133.11 42.2,42.37 86.26,88.85 132.56,139.08 0,0 93.35,-92.99 93.35,-92.99 0,0 -53.77,-53.99 -53.77,-53.99 0,0 0.54,-87.17 0.54,-87.17 71.07,16.59 122.68,29.42 155.59,39.22 0,0 117.71,-117.27 117.71,-117.27zm-128.23 -571.99c0,0 -134.84,276.29 -134.84,276.29 0,0 94.64,46.19 94.64,46.19 15.96,-37.54 28.48,-65.59 37.28,-84.85 0,0 162.65,79.38 162.65,79.38 -9.77,18.79 -24.18,45.91 -43.95,81.59 0,0 94.64,46.19 94.64,46.19 0,0 134.84,-276.3 134.84,-276.3 0,0 -94.63,-46.18 -94.63,-46.18 -16.44,38.5 -28.94,66.54 -37.52,85.32 0,0 -162.64,-79.38 -162.64,-79.38 9.3,-17.84 23.93,-45.43 44.18,-82.06 0,0 -94.65,-46.19 -94.65,-46.19z"/>
 </g>
</svg>
