<?xml version="1.0" encoding="UTF-8"?>
<!DOCTYPE svg PUBLIC "-//W3C//DTD SVG 1.1//EN" "http://www.w3.org/Graphics/SVG/1.1/DTD/svg11.dtd">
<!-- Creator: CorelDRAW -->
<svg xmlns="http://www.w3.org/2000/svg" xml:space="preserve" width="218mm" height="11mm" version="1.1" style="shape-rendering:geometricPrecision; text-rendering:geometricPrecision; image-rendering:optimizeQuality; fill-rule:evenodd; clip-rule:evenodd"
viewBox="0 0 21800 1100"
 xmlns:xlink="http://www.w3.org/1999/xlink"
 xmlns:xodm="http://www.corel.com/coreldraw/odm/2003">
 <defs>
  <style type="text/css">
   <![CDATA[
    .str0 {stroke:#2B2B2A;stroke-width:70.56;stroke-miterlimit:22.9256;stroke-dasharray:141.120000 211.680000}
    .fil0 {fill:none}
    .fil1 {fill:#2B2B2A;fill-rule:nonzero}
   ]]>
  </style>
 </defs>
 <g id="x0020_1">
  <metadata id="CorelCorpID_0Corel-Layer"/>
  <g id="_105553170348064">
   <path class="fil0 str0" d="M40.49 550.31l1939.13 0m1531.19 0l18248.69 0"/>
   <path class="fil1" d="M2526.62 550.01l-373.46 181.96c-99.13,48.89 -146.67,107.29 -146.67,184.7 0,99.12 73.33,165.67 183.33,165.67 118.15,0 206.43,-78.77 206.43,-184.69 0,-70.61 -33.96,-122.23 -96.43,-143.94l327.29 -142.59 450.87 165.67c76.04,27.15 126.29,39.37 168.38,39.37 24.44,0 40.74,-6.78 50.25,-19l-532.33 -247.15 532.33 -247.17c-9.51,-12.22 -25.81,-19.01 -50.25,-19.01 -42.09,0 -93.7,12.22 -168.38,39.38l-450.87 165.69 -327.29 -142.61c62.47,-21.72 96.43,-73.33 96.43,-143.94 0,-105.92 -88.28,-184.69 -209.14,-184.69 -107.29,0 -180.62,66.54 -180.62,165.67 0,77.4 46.18,135.8 146.67,184.69l373.46 181.99zm-450.87 -369.39c0,-59.75 40.74,-95.07 107.29,-95.07 81.48,0 139.88,50.25 139.88,119.51 0,51.6 -40.74,89.63 -96.43,89.63 -82.83,0 -150.74,-51.6 -150.74,-114.07zm0 738.76c0,-65.19 67.91,-114.07 156.18,-114.07 50.25,0 90.99,40.74 90.99,89.62 0,69.26 -59.77,119.51 -141.25,119.51 -65.18,0 -105.92,-35.31 -105.92,-95.06z"/>
  </g>
 </g>
</svg>
