<?xml version="1.0" encoding="UTF-8"?>
<!DOCTYPE svg PUBLIC "-//W3C//DTD SVG 1.1//EN" "http://www.w3.org/Graphics/SVG/1.1/DTD/svg11.dtd">
<!-- Creator: CorelDRAW -->
<svg xmlns="http://www.w3.org/2000/svg" xml:space="preserve" width="200mm" height="200mm" version="1.1" style="shape-rendering:geometricPrecision; text-rendering:geometricPrecision; image-rendering:optimizeQuality; fill-rule:evenodd; clip-rule:evenodd"
viewBox="0 0 20000 20000"
 xmlns:xlink="http://www.w3.org/1999/xlink"
 xmlns:xodm="http://www.corel.com/coreldraw/odm/2003">
 <defs>
  <style type="text/css">
   <![CDATA[
    .fil0 {fill:white}
    .fil1 {fill:#e95169}
   ]]>
  </style>
 </defs>
 <g>
  <metadata id="CorelCorpID_0Corel-Layer"/>
  <circle class="fil0" cx="9992.4" cy="10007.6" r="8386.46"/>
  <path class="fil1" d="M6161.92 10121.81c0,149.38 9.2,292.57 21.99,427.98 8.13,86.01 18.26,123.62 35.83,194.92 68.41,277.67 115.24,740.41 115.24,1026.98 0,393.34 -63.06,832 -156.77,1204.65 -37.07,147.38 -106.98,373.93 -181.57,510.69 -95.29,174.71 33.51,440.5 307.84,352.88 23.24,-7.43 14.41,-4.83 27.8,-5.23l21.11 2.04c38.15,3.04 182.56,-286.71 208.52,-338.22 181.7,-360.44 292.27,-940.02 292.27,-1369.15 0,-365.17 -2.4,-943.61 -111.06,-1273.46 -215.09,-652.99 -155.41,-1745.75 179.68,-2326.86 127.65,-221.37 183.97,-322.71 348.24,-528.62 83.4,-104.53 103.06,-135.96 197.56,-229.33 72.09,-71.21 26.19,-41.9 108.94,-110.28 72.33,-59.78 131.55,-134.44 273.74,-245.45 61.17,-47.76 109.79,-81.34 175.11,-124.87 470.27,-313.44 1156.15,-577.24 1735.24,-595.35 58.54,-1.83 64.68,-11.21 126.47,-11.98 49.55,-0.6 101.57,2.41 150.84,0.82 63.36,-2.04 65.77,-15.41 131,-5.63 61.52,9.24 260.52,7.11 413.02,26.21 89.93,11.26 165.11,18.5 256.75,32.23 190.88,28.6 296.29,-138.86 238.97,-297.14 -51.5,-142.22 -244.3,-150.21 -410.49,-177.99 -549.77,-91.91 -1082.62,-64.43 -1617.25,68.93 -328.82,82.01 -559.11,185.97 -854.7,333.67 -178.36,89.11 -416.21,248.46 -577.32,368.76l-196.51 161.15c-28.49,27.13 -41.65,31.88 -69.38,57.54 -93.08,86.1 -394.7,391.61 -464.34,481.73 -35.32,45.71 -69.71,88.19 -105.54,136.75 -84.26,114.22 -203.23,316.57 -263.42,451.92 -231.48,520.54 -357.81,1109.18 -357.81,1799.71zm1072.99 1073c0,321.11 7.06,515.34 -54.67,833.72 -14.59,75.25 -26.09,96.31 -26.09,181.59 0,228.94 324.86,319.17 448.32,125.27 113.74,-178.64 151.64,-580.46 151.64,-794.45 0,-561.04 -123.44,-1151.27 -253.24,-1628.16 -13.04,-47.92 1.2,-107.47 13.77,-168.88 80.32,-392.69 143.43,-589.14 331.76,-937.37 323.88,-598.86 909.9,-1006.05 1568.86,-1165.56 602.68,-145.88 1090.8,-95.05 1657.9,165.56l265.53 149.82c137.95,81.73 285.24,192.63 404.73,299.08l209.2 194.6c98.11,102.12 85.83,133.42 137.28,174.24 256.54,203.58 547.09,-164.32 337.76,-372.38l-125.09 -117.2c-41.94,-42.38 -62.62,-78.54 -109.23,-121.52 -224.45,-206.92 -417.92,-350 -687.2,-512.71 -93.16,-56.28 -212.12,-109.57 -318.7,-154.34 -641.98,-269.66 -1424.35,-337.69 -2099.45,-113.19 -394.44,131.18 -860.6,350.01 -1152.2,647.68 -232.95,237.8 -314.89,301.19 -504.21,614.92 -205.19,340.05 -351.31,762.52 -411.14,1169.53 -10.55,71.78 -9.69,127 -19.58,199.77 -13.91,102.27 -3.55,104.42 24.9,189.24 111.12,331.19 209.15,770.6 209.15,1140.74zm749.95 -5318.83c0,112.99 82.33,207.68 207.68,207.68 68.38,0 147.17,-30.15 206.27,-47.55 772.73,-227.49 1969.05,-316.16 2770.43,-125.52 439.08,104.45 738.3,205.46 1122.79,434.79 57.69,34.41 101.86,61.53 155.71,98.11 178.83,121.45 413.99,323.6 564.62,473.76 49.39,49.23 78.65,91.18 126.97,138.41l118.31 135.51c180.9,233.55 265.82,345.89 421.8,605.05 109.54,182.02 174.73,324.32 262.76,521.79 180.22,404.28 264.96,792.49 322.52,1235.05l31.2 487.99 -28.02 514.41c-45.51,290.51 263.91,367.71 394.22,255.45 15.69,-13.53 34.71,-41.28 52.74,-44.75 37.45,-7.19 54.1,38.56 54.1,-21.32 0,-847.84 -102.05,-1581.88 -285.91,-2240.81 -101.45,-363.56 -269.89,-789.39 -466.13,-1114.53 -134.69,-223.14 -174.13,-269.76 -330.77,-465.32 -26.26,-32.77 -50.16,-48.35 -77.62,-83.91l-235.52 -225.98c-27.37,-21.13 -63.1,-47.26 -89.66,-71.87 -163.46,-151.44 -163.58,-152.33 -345.58,-288.98 -125.72,-94.4 -245.24,-170.23 -381.85,-252.72 -136.91,-82.67 -266.24,-146.76 -413.68,-220.89 -74.1,-37.26 -138.37,-61.59 -215.46,-96.05 -142.32,-63.64 -317.75,-120.45 -467.68,-166.89 -232.36,-71.96 -546.29,-138.14 -789.26,-168.37 -406.55,-50.57 -821.89,-50.52 -1227.98,0 -403.24,50.17 -948.05,180.27 -1320.64,329.24 -76.47,30.56 -136.36,96.26 -136.36,198.22zm911.46 4534.27c0,742.23 173.07,1097.39 173.07,1730.64 0,637.9 -139.78,1240.22 -305.36,1736.8l-163.73 436.22c-127.52,285.79 -162.18,373.43 -313.49,655.67 -30.3,56.51 -59.66,97.36 -59.66,182.62 0,254.15 368.17,342.46 473.1,92.36 119.32,-284.4 227.07,-450.75 359.35,-805.94 238.81,-641.27 391.37,-1441.42 390.53,-2124.67 -0.26,-204.22 20.64,-308.03 -0.61,-564.73 -19.72,-238.25 -39,-471 -75.08,-697.94 -74.1,-466.1 -97.37,-385.41 -97.37,-894.85 0,-970.85 1027.43,-1288.61 1381.32,-400.63 116.61,292.62 177.88,721.77 176.18,1046.81 -0.41,77.75 10.11,109.54 12.25,172.88l-11.91 334.97c0.54,130.68 -58.81,569.01 -39.97,639.24 39.93,148.84 231.01,204.81 343.14,102.35 98.38,-89.91 88.84,-345.41 88.84,-499.57 0,-422.57 3.33,-855.27 -49.42,-1277.41 -37.42,-299.45 -42.47,-531.03 -229.61,-820.3 -212.01,-327.73 -505.77,-532.86 -943.95,-532.86 -902.73,0 -1107.62,678.17 -1107.62,1488.34zm1892.18 -5641.88c0,268.84 193.73,270.56 362.26,306.92 2138.36,461.27 3490.93,1935.47 3895.24,4088.76 40.1,164.26 68.41,334.81 95.78,515.71 18.21,120.3 -10.03,157.04 49.91,261.61 104.97,183.12 454.12,135.49 454.12,-131.07 0,-469.14 -186.94,-1355.33 -364.22,-1793.3 -214.47,-529.85 -238.61,-559.01 -516.31,-1029.72l-253.73 -357.77c-49.07,-60.25 -91.96,-110.4 -139.73,-171.79l-148.06 -163.45c-33.65,-33.15 -40.35,-45.19 -69.7,-80.29l-316.23 -295.26c-527.04,-443.15 -970.5,-742.04 -1620.32,-1010.26 -76.46,-31.55 -139.72,-60.36 -221.89,-89.62 -160,-56.99 -295,-109.15 -466.2,-156.82l-366.93 -94.58c-43.05,-12.34 -82.99,-29.82 -131.71,-29.82 -129.51,0 -242.28,102.7 -242.28,230.75zm773.01 2122.91c0,194.78 82.04,182.77 200.9,260.61 91.82,60.14 165.7,112.63 250.74,176.16 39.72,29.66 78.74,58.58 116.28,91.4l438.87 426.44c24.7,25.38 25.22,31.58 46.7,57.14 21.65,25.75 31.73,36.41 52.63,62.75 447.78,564.56 659.67,1131.18 716.13,1868.28 30.15,393.35 37.68,852.29 69.31,1234.44 11.09,134.05 -9.88,291.64 1.21,425.68 11.18,135.06 19.95,684.44 2.54,811.39 -14.94,109.02 0.72,272.78 -2.77,389.5l-46.54 830.31c-3.46,71.51 -23.22,170.86 -22.94,277.05 0.41,153.91 -43.85,203.51 60.05,308.9 77.49,78.61 178.71,102.58 282.71,56.95 50.39,-22.11 77.63,-47.89 105.41,-90.75 37.62,-58.02 31.39,-82.04 43.11,-164.56l50.26 -1126.58c10.96,-132.49 -1.89,-423.48 0.15,-588.27 0.84,-68.87 12.49,-103.14 12.07,-184.06 -0.57,-110.24 10.66,-287.91 -3.23,-389.2l-31.51 -960.72c-9.03,-167.26 -5.89,-399.45 -29.69,-558.74l-28.82 -363.45c-8.25,-107.73 -28.55,-248.01 -41.79,-350.49 -30.33,-234.61 -101.04,-415.03 -169.23,-615.34 -68.23,-200.46 -152.33,-374.97 -241.93,-554.16 -267.08,-534.24 -602.15,-948.17 -1082.96,-1270.7 -85.3,-57.23 -158.95,-94.05 -251.5,-140.78 -70.69,-35.69 -218.09,-103.79 -311.55,-103.79 -104.29,0 -184.61,80.33 -184.61,184.59zm-2399.82 1465.29c0,94.75 48.01,163.08 111.17,200.35 178.44,105.28 317.19,-73.45 800.3,-73.45 340.94,0 604.21,90.78 818.65,219.74 374.49,225.2 625.78,663.29 738.97,1072.43 16.53,59.77 46.72,152.45 54.91,210.46l35.66 483.53c25.08,223.38 13.63,1393.49 1.75,1613.63l-14.76 227.55c-25.24,184.56 -33.16,443.21 -62.68,675.71 -62.24,490.18 -104.33,781.35 -208.17,1268.64l-145.72 581.15c-20.75,68.56 -76.39,94.41 -76.39,177.43 0,272.16 318.73,291.11 398.62,121.72 62.05,-131.59 328.88,-1510.29 354.6,-1664.47 226.43,-1357.71 387.78,-3139.06 -168.12,-4430.39 -22.45,-52.17 -35.39,-85.83 -62.2,-133.94 -81.01,-145.41 -154.92,-209.32 -283.35,-328.14l-107.53 -88.6c-478.16,-358.43 -1062.17,-576.91 -1680.49,-435.77 -103.49,23.62 -376.17,81.25 -445.28,154.68 -29.44,31.26 -59.94,91.78 -59.94,147.74zm-3899.7 1719.09c0,402.19 1.56,599.93 79.76,993.23 108.73,546.89 86.95,1097.21 -22.99,1636.43 -37.7,184.93 -79.84,111.12 -79.84,277.82 0,246.12 379.22,335.26 474.83,71.02 173.58,-479.73 171.27,-723.38 171.27,-1236.32 0,-269.42 -29.86,-535.16 -59.76,-782.49l-113.31 -728.94c0,-581.99 30,-983.83 177.94,-1506.55 202.72,-716.36 555.01,-1332 1065.24,-1842.23 31.64,-31.64 55.02,-54.87 86.43,-86.63l300.67 -253.14c89.23,-72.43 284.1,-174.86 310.72,-220.01 165.19,-280.25 -112.3,-478.12 -317.57,-329.1l-347.69 240.72c-153.87,115.26 -285.27,231.69 -419.07,365.49 -185.91,185.91 -295.91,326.76 -446.2,534.49 -31.18,43.09 -51.88,69.68 -79.56,116.59 -26.8,45.4 -48,76.53 -74.91,121.22 -348.28,578.47 -551.98,1210.26 -648.93,1900.87 -31.03,221.03 -57.03,477.48 -57.03,727.53zm-334.59 -2492.12c0,73.2 6.71,121.31 71.47,182.36 74.89,70.59 157.06,72.74 247.79,33.07 18.45,-8.07 29,-11.09 41.45,-16.24 39.03,-16.15 9.45,6.08 36.31,-21.37 15.58,-15.91 29.57,-49.74 43.67,-71.72 231.88,-361.47 544.56,-811.52 854.38,-1118.54 246.23,-244.02 343.13,-335.9 607.03,-546.72l412.19 -291.61c49.21,-32.23 97.04,-58.84 143.85,-86.9 49.19,-29.48 97.14,-53.22 147.13,-83.63 175.75,-106.94 445.12,-217.8 640.15,-294.39 418.54,-164.36 1066.34,-314.88 1542.68,-314.88 124.16,0 135.68,33.6 246.48,-30.41 202.62,-117.04 123.9,-505.86 -182.12,-459.58 -159.15,24.08 -330.85,27.66 -481.77,49.51 -766.36,110.97 -1019.78,201.44 -1660.98,461.94 -231.56,94.08 -478.69,243.07 -691.18,370.27 -191.47,114.63 -583.24,406.8 -758.2,568.64 -24,22.2 -39.67,40.65 -63.08,63.82 -30.03,29.71 -45.83,35.77 -75.37,63.09 -116.97,108.19 -164.29,168.72 -259.31,271.42 -22.35,24.17 -41.37,39 -63.74,63.17l-301.13 368.05c-39.34,52.57 -72.07,98.27 -112.1,153.27 -39.6,54.41 -69.47,103.85 -106.42,158.94l-197.82 332.91c-36.63,63.51 -81.36,122.61 -81.36,195.53zm3034.39 2642.12c0,283.79 26.11,603.65 65.73,845.73 83.39,509.5 107.33,425.54 107.33,1000.28 0,412.59 -116.38,993.68 -243.66,1394.68 -145.56,458.65 -183.46,512.43 -344.57,878.42 -64.66,146.9 -212.86,297.74 -66.56,458.45 87.86,96.5 266.16,88.75 345.33,-6.63 13.99,-16.86 32.47,-57.52 46.31,-80.6 17.3,-28.84 28.72,-51.94 46.17,-80.74 192.45,-317.7 331.74,-760.4 437.6,-1119.98 143.85,-488.7 263.95,-1302.54 263.95,-1835.88 0,-60.46 -20.67,-116.53 -32.4,-163.73l-104.44 -507.05c-86.5,-514.61 -106.36,-1004.5 32.96,-1509.87 120.86,-438.4 276.95,-410.24 276.95,-611.44 0,-139.48 -209.36,-376.16 -509.46,32.79 -77.78,105.98 -135.7,223.34 -184.35,357.93 -87.57,242.23 -136.89,614.83 -136.89,947.64zm4361.2 -1015.31c0,157.48 79.93,345.22 122.13,558.58 81.41,411.57 121.15,744.04 143.19,1172.1 2.84,55.06 12.14,79.59 11.74,149.79l11.38 542.42c0,683.95 -78.44,1617.47 -192.74,2310.91 -11.84,71.8 -73.65,486.5 -93.78,529.25 -16,33.99 -124.57,164.63 -9.2,305.34 65.61,80.01 191.56,93.29 276.42,53.4 20.81,-9.78 16.87,-9.87 29.44,-14.72 1.87,-0.72 5.23,-1.71 7.05,-2.33 1.72,-0.59 5.18,-1.21 6.86,-1.74 34.9,-11.32 27.81,-2.54 49.7,-71.82 9.66,-30.53 16.36,-47.72 25.23,-78.76 32.69,-114.52 56.54,-219.43 83.21,-332.15 26.92,-113.73 52.31,-226.07 71.64,-343.71 43.52,-265.04 135.05,-856.41 138.51,-1107.55l34.71 -1453.96 -26.39 -562.03c-23.89,-174.55 -33.83,-530.9 -59.36,-713.66 -16.23,-116.18 -25.76,-233.59 -39.19,-341.55 -14.86,-119.47 -29.22,-239.64 -44.82,-347.45l-35.32 -253.11c-11.78,-79.93 4.15,-25.76 -31.06,-72.78 -40.71,-54.37 -85.59,-155.22 -237.06,-155.22 -129.5,0 -242.29,102.7 -242.29,230.75zm-2376.74 2676.72c0,366.7 -27.45,702.73 -82.25,1025.35 -43.15,253.99 -83.4,411.08 -161.5,646.14 -8.07,24.28 -30.07,77.15 -35.87,101.36 -74.94,312.9 195.31,474.63 384.06,339.13 166.52,-119.54 249.5,-805.58 271.24,-940.21 16.56,-102.56 31.03,-202.31 39.99,-306.13l37.44 -481.75c6.93,-50.65 8.49,-97.33 8.39,-164.67 -0.19,-130.13 11.54,-215.95 11.54,-346.14l-11.08 -438.88c-0.79,-64.27 -11.87,-73.46 -12.42,-137.57 -2.3,-268.65 -73.15,-810.28 -121.55,-1101.45 -24.64,-148.3 -13.86,-174.1 -70.92,-229.05 -61.4,-59.15 -92.16,-100.59 -210.92,-100.59 -178.8,0 -274.44,175.89 -233.79,371.94 112.7,543.72 187.64,1182.09 187.64,1762.52zm-5376.52 -3542.05l-83.97 389.08c-21.27,125.93 -48.6,261.87 -71.08,401.95 -39.2,244.27 -66.88,532.01 -75.7,827.03l0 391.99c10.95,346.65 52.6,681.33 137.01,945.03 26.82,83.79 127.79,403.12 187.18,441.07 35.15,22.46 -13,-16.28 16.32,7.83 26.41,21.7 55.28,172.67 236.37,172.67 103.37,0 163.94,-41.62 205.92,-105.59 101.07,-154.04 -3,-304.14 -49.07,-489.68 -22.82,-91.9 -46,-163.78 -65.5,-257.55 -163.68,-786.88 -216.32,-1624.59 39.77,-2408.1 25,-76.48 41.95,-93.21 41.95,-177.28 0,-250.98 -301.5,-356.45 -463.71,-175.26 -40.35,45.07 -0.46,30.79 -55.49,36.81zm5514.96 6968.71c0,140.88 114.72,235.4 237.04,242.29l28.88 0c56.52,-3.26 112.89,-25.78 158.64,-71.57 48.7,-48.75 239.44,-463.79 254.85,-506.63 96.21,-267.58 173.11,-500.41 231.24,-784.06 85.95,-419.34 121.64,-671.25 178.76,-1090.38 20.12,-147.65 59.83,-345.3 6.88,-431.96 -78.54,-128.53 -388.88,-168.39 -392.57,161.64 -1.48,132.84 -29.63,285.73 -43.99,405.97 -55.88,467.54 -188.22,1037.48 -364.54,1458.42 -86.08,205.5 -134.32,270.67 -238.19,442.52 -30.68,50.77 -57,89.46 -57,173.76zm4361.22 -3322.83l0 542.27c0,105.52 -23.08,171.61 -23.08,265.37 0,279.17 493.26,397.75 507.64,-80.78 9.03,-300.48 38.21,-504.95 12.16,-819.76 -3.5,-42.35 -0.16,-94.84 -0.22,-138.25 -0.06,-63.43 -9.43,-74.52 -11.94,-126.49 -6.16,-127.57 22.76,-81.19 -64.08,-212.82 -107.56,-163 -487.05,-146.78 -435.19,227.48l15.09 215.7c1.23,41.16 -0.38,85.69 -0.38,127.28zm-7914.79 2330.59c0,300.48 318.78,320.02 429.18,186.88 35.62,-42.95 233.29,-466.11 262.75,-533.32 65.04,-148.31 277.23,-651.12 277.23,-795.78 0,-198.94 -268.79,-280.01 -381.2,-127.37 -51.8,70.33 -50.9,91.35 -85.18,180.19l-156.48 374.25c-58.57,118.89 -116.07,231.95 -176.94,353.79 -37.69,75.41 -169.36,271.02 -169.36,361.36zm2503.65 946.09c0,122.31 94.82,219.21 196.15,219.21 151.19,0 158.56,-71.73 233.57,-147.16 177.8,-178.79 377.92,-534.63 377.92,-787.39 0,-167.7 -191.79,-252.3 -334.65,-150.04 -23.67,16.93 -58.61,86.19 -76.74,119.4l-273.02 488.45c-65.65,117.51 -123.23,174.06 -123.23,257.53z"/>
 </g>
</svg>
